<svg xmlns="http://www.w3.org/2000/svg" xmlns:xlink="http://www.w3.org/1999/xlink" viewBox="0 0 241.291 241.291">
  <defs>
    <filter id="Path_18803" x="3.862" y="3.862" width="233" height="233" filterUnits="userSpaceOnUse">
      <feOffset dx="2" dy="-2" input="SourceAlpha"/>
      <feGaussianBlur stdDeviation="7.5" result="blur"/>
      <feFlood flood-color="#6d20b3" result="color"/>
      <feComposite operator="out" in="SourceGraphic" in2="blur"/>
      <feComposite operator="in" in="color"/>
      <feComposite operator="in" in2="SourceGraphic"/>
    </filter>
    <filter id="_3" x="71.322" y="26.564" width="33.761" height="33.761" filterUnits="userSpaceOnUse">
      <feOffset dy="1" input="SourceAlpha"/>
      <feGaussianBlur stdDeviation="0.5" result="blur-2"/>
      <feFlood flood-opacity="0.161"/>
      <feComposite operator="in" in2="blur-2"/>
      <feComposite in="SourceGraphic"/>
    </filter>
    <filter id="MPs" x="81.41" y="49.801" width="25.898" height="21.117" filterUnits="userSpaceOnUse">
      <feOffset dy="1" input="SourceAlpha"/>
      <feGaussianBlur stdDeviation="0.5" result="blur-3"/>
      <feFlood flood-opacity="0.161"/>
      <feComposite operator="in" in2="blur-3"/>
      <feComposite in="SourceGraphic"/>
    </filter>
    <filter id="_1" x="150.097" y="33.572" width="32.679" height="33.952" filterUnits="userSpaceOnUse">
      <feOffset dy="1" input="SourceAlpha"/>
      <feGaussianBlur stdDeviation="0.5" result="blur-4"/>
      <feFlood flood-opacity="0.161"/>
      <feComposite operator="in" in2="blur-4"/>
      <feComposite in="SourceGraphic"/>
    </filter>
    <filter id="MPs-2" x="143.738" y="53.925" width="26.32" height="23.775" filterUnits="userSpaceOnUse">
      <feOffset dy="1" input="SourceAlpha"/>
      <feGaussianBlur stdDeviation="0.5" result="blur-5"/>
      <feFlood flood-opacity="0.161"/>
      <feComposite operator="in" in2="blur-5"/>
      <feComposite in="SourceGraphic"/>
    </filter>
    <filter id="_15" x="185.612" y="80.641" width="34.029" height="39.856" filterUnits="userSpaceOnUse">
      <feOffset dy="1" input="SourceAlpha"/>
      <feGaussianBlur stdDeviation="0.5" result="blur-6"/>
      <feFlood flood-opacity="0.161"/>
      <feComposite operator="in" in2="blur-6"/>
      <feComposite in="SourceGraphic"/>
    </filter>
    <filter id="MPs-3" x="175.42" y="92.268" width="19.482" height="25.309" filterUnits="userSpaceOnUse">
      <feOffset dy="1" input="SourceAlpha"/>
      <feGaussianBlur stdDeviation="0.5" result="blur-7"/>
      <feFlood flood-opacity="0.161"/>
      <feComposite operator="in" in2="blur-7"/>
      <feComposite in="SourceGraphic"/>
    </filter>
    <filter id="_5" x="177.124" y="144.389" width="35.785" height="35.785" filterUnits="userSpaceOnUse">
      <feOffset dy="1" input="SourceAlpha"/>
      <feGaussianBlur stdDeviation="0.5" result="blur-8"/>
      <feFlood flood-opacity="0.161"/>
      <feComposite operator="in" in2="blur-8"/>
      <feComposite in="SourceGraphic"/>
    </filter>
    <filter id="MPs-4" x="167.732" y="140.121" width="23.392" height="26.321" filterUnits="userSpaceOnUse">
      <feOffset dy="1" input="SourceAlpha"/>
      <feGaussianBlur stdDeviation="0.5" result="blur-9"/>
      <feFlood flood-opacity="0.161"/>
      <feComposite operator="in" in2="blur-9"/>
      <feComposite in="SourceGraphic"/>
    </filter>
    <filter id="_13" x="122.611" y="184.996" width="40.376" height="34.891" filterUnits="userSpaceOnUse">
      <feOffset dy="1" input="SourceAlpha"/>
      <feGaussianBlur stdDeviation="0.5" result="blur-10"/>
      <feFlood flood-opacity="0.161"/>
      <feComposite operator="in" in2="blur-10"/>
      <feComposite in="SourceGraphic"/>
    </filter>
    <filter id="MPs-5" x="125.071" y="175.115" width="25.533" height="20.048" filterUnits="userSpaceOnUse">
      <feOffset dy="1" input="SourceAlpha"/>
      <feGaussianBlur stdDeviation="0.5" result="blur-11"/>
      <feFlood flood-opacity="0.161"/>
      <feComposite operator="in" in2="blur-11"/>
      <feComposite in="SourceGraphic"/>
    </filter>
    <filter id="_7" x="64.119" y="179.381" width="37.224" height="36.397" filterUnits="userSpaceOnUse">
      <feOffset dy="1" input="SourceAlpha"/>
      <feGaussianBlur stdDeviation="0.5" result="blur-12"/>
      <feFlood flood-opacity="0.161"/>
      <feComposite operator="in" in2="blur-12"/>
      <feComposite in="SourceGraphic"/>
    </filter>
    <filter id="MPs-6" x="78.035" y="170.194" width="26.293" height="22.985" filterUnits="userSpaceOnUse">
      <feOffset dy="1" input="SourceAlpha"/>
      <feGaussianBlur stdDeviation="0.5" result="blur-13"/>
      <feFlood flood-opacity="0.161"/>
      <feComposite operator="in" in2="blur-13"/>
      <feComposite in="SourceGraphic"/>
    </filter>
    <filter id="_11" x="23.181" y="129.368" width="34.478" height="37.046" filterUnits="userSpaceOnUse">
      <feOffset dy="1" input="SourceAlpha"/>
      <feGaussianBlur stdDeviation="0.5" result="blur-14"/>
      <feFlood flood-opacity="0.161"/>
      <feComposite operator="in" in2="blur-14"/>
      <feComposite in="SourceGraphic"/>
    </filter>
    <filter id="MPs-7" x="47.242" y="129.464" width="20.593" height="25.729" filterUnits="userSpaceOnUse">
      <feOffset dy="1" input="SourceAlpha"/>
      <feGaussianBlur stdDeviation="0.5" result="blur-15"/>
      <feFlood flood-opacity="0.161"/>
      <feComposite operator="in" in2="blur-15"/>
      <feComposite in="SourceGraphic"/>
    </filter>
    <filter id="_9" x="25.629" y="68.783" width="35.969" height="36.89" filterUnits="userSpaceOnUse">
      <feOffset dy="1" input="SourceAlpha"/>
      <feGaussianBlur stdDeviation="0.5" result="blur-16"/>
      <feFlood flood-opacity="0.161"/>
      <feComposite operator="in" in2="blur-16"/>
      <feComposite in="SourceGraphic"/>
    </filter>
    <filter id="MPs-8" x="48.515" y="82.001" width="22.553" height="26.236" filterUnits="userSpaceOnUse">
      <feOffset dy="1" input="SourceAlpha"/>
      <feGaussianBlur stdDeviation="0.5" result="blur-17"/>
      <feFlood flood-opacity="0.161"/>
      <feComposite operator="in" in2="blur-17"/>
      <feComposite in="SourceGraphic"/>
    </filter>
    <clipPath id="clip-path">
      <rect id="Rectangle_9828" data-name="Rectangle 9828" width="23.038" height="32" fill="none"/>
    </clipPath>
    <filter id="Path_15826">
      <feOffset dy="1" input="SourceAlpha"/>
      <feGaussianBlur stdDeviation="1" result="blur-18"/>
      <feFlood flood-opacity="0.161" result="color-2"/>
      <feComposite operator="out" in="SourceGraphic" in2="blur-18"/>
      <feComposite operator="in" in="color-2"/>
      <feComposite operator="in" in2="SourceGraphic"/>
    </filter>
    <filter id="Ellipse_14" x="182.933" y="14.952" width="11.761" height="11.761" filterUnits="userSpaceOnUse">
      <feOffset dx="0.5" dy="0.5" input="SourceAlpha"/>
      <feGaussianBlur stdDeviation="0.5" result="blur-19"/>
      <feFlood flood-color="#020202" flood-opacity="0.161"/>
      <feComposite operator="in" in2="blur-19"/>
      <feComposite in="SourceGraphic"/>
    </filter>
    <filter id="Path_18809" x="84.362" y="83.862" width="75" height="75" filterUnits="userSpaceOnUse">
      <feOffset dx="1" dy="1" input="SourceAlpha"/>
      <feGaussianBlur stdDeviation="1.5" result="blur-20"/>
      <feFlood flood-opacity="0.161"/>
      <feComposite operator="in" in2="blur-20"/>
      <feComposite in="SourceGraphic"/>
    </filter>
    <filter id="SPIN" x="99.362" y="104.862" width="43" height="22" filterUnits="userSpaceOnUse">
      <feOffset dy="1" input="SourceAlpha"/>
      <feGaussianBlur stdDeviation="0.5" result="blur-21"/>
      <feFlood flood-opacity="0.161"/>
      <feComposite operator="in" in2="blur-21"/>
      <feComposite in="SourceGraphic"/>
    </filter>
    <filter id="_10MPs_lần" x="95.362" y="123.862" width="51" height="14" filterUnits="userSpaceOnUse">
      <feOffset dy="1" input="SourceAlpha"/>
      <feGaussianBlur stdDeviation="0.5" result="blur-22"/>
      <feFlood flood-opacity="0.161"/>
      <feComposite operator="in" in2="blur-22"/>
      <feComposite in="SourceGraphic"/>
    </filter>
  </defs>
  <g id="Group_15323" data-name="Group 15323" transform="translate(-1055.138 -698.638)">
    <g id="Group_15313" data-name="Group 15313" transform="translate(-5519 -1009.5)">
      <g data-type="innerShadowGroup">
        <g id="Path_18803-2" data-name="Path 18803" transform="translate(6578 1712)" fill="#a861df">
          <path d="M 116.5000228881836 230.5000610351562 C 108.7636489868164 230.5000610351562 101.0328369140625 229.7208099365234 93.52239990234375 228.1839294433594 C 86.20408630371094 226.6864013671875 79.00558471679688 224.4518737792969 72.12683868408203 221.5424041748047 C 65.37239837646484 218.6854858398438 58.8575553894043 215.1493377685547 52.76327133178711 211.0321197509766 C 46.72624206542969 206.9535522460938 41.04917907714844 202.2695617675781 35.88983535766602 197.1101837158203 C 30.73046112060547 191.9508361816406 26.04646110534668 186.2738037109375 21.96792984008789 180.2367401123047 C 17.85070991516113 174.1424560546875 14.3145227432251 167.6276092529297 11.45764827728271 160.8731842041016 C 8.548178672790527 153.9944305419922 6.313647747039795 146.7959289550781 4.816116809844971 139.4776458740234 C 3.279241561889648 131.9671783447266 2.499991655349731 124.2363967895508 2.499991655349731 116.5000228881836 C 2.499991655349731 108.7636489868164 3.279241561889648 101.0328369140625 4.816116809844971 93.52239990234375 C 6.313647747039795 86.20408630371094 8.548178672790527 79.00558471679688 11.45764827728271 72.12683868408203 C 14.3145227432251 65.37239837646484 17.85070991516113 58.8575553894043 21.96792984008789 52.76327133178711 C 26.04646110534668 46.72624206542969 30.73046112060547 41.04917907714844 35.88983535766602 35.88983535766602 C 41.04917907714844 30.73046112060547 46.72624206542969 26.04646110534668 52.76327133178711 21.96792984008789 C 58.8575553894043 17.85070991516113 65.37239837646484 14.3145227432251 72.12683868408203 11.45764827728271 C 79.00558471679688 8.548178672790527 86.20408630371094 6.313647747039795 93.52239990234375 4.816116809844971 C 101.0328369140625 3.279241561889648 108.7636489868164 2.499991655349731 116.5000228881836 2.499991655349731 C 124.2363967895508 2.499991655349731 131.9671783447266 3.279241561889648 139.4776458740234 4.816116809844971 C 146.7959289550781 6.313647747039795 153.9944305419922 8.548178672790527 160.8731842041016 11.45764827728271 C 167.6276092529297 14.3145227432251 174.1424560546875 17.85070991516113 180.2367401123047 21.96792984008789 C 186.2738037109375 26.04646110534668 191.9508361816406 30.73046112060547 197.1101837158203 35.88983535766602 C 202.2695617675781 41.04917907714844 206.9535522460938 46.72624206542969 211.0321197509766 52.76327133178711 C 215.1493377685547 58.8575553894043 218.6854858398438 65.37239837646484 221.5424041748047 72.12683868408203 C 224.4518737792969 79.00558471679688 226.6864013671875 86.20408630371094 228.1839294433594 93.52239990234375 C 229.7208099365234 101.0328369140625 230.5000610351562 108.7636489868164 230.5000610351562 116.5000228881836 C 230.5000610351562 124.2363967895508 229.7208099365234 131.9671783447266 228.1839294433594 139.4776458740234 C 226.6864013671875 146.7959289550781 224.4518737792969 153.9944305419922 221.5424041748047 160.8731842041016 C 218.6854858398438 167.6276092529297 215.1493377685547 174.1424560546875 211.0321197509766 180.2367401123047 C 206.9535522460938 186.2738037109375 202.2695617675781 191.9508361816406 197.1101837158203 197.1101837158203 C 191.9508361816406 202.2695617675781 186.2738037109375 206.9535522460938 180.2367401123047 211.0321197509766 C 174.1424560546875 215.1493377685547 167.6276092529297 218.6854858398438 160.8731842041016 221.5424041748047 C 153.9944305419922 224.4518737792969 146.7959289550781 226.6864013671875 139.4776458740234 228.1839294433594 C 131.9671783447266 229.7208099365234 124.2363967895508 230.5000610351562 116.5000228881836 230.5000610351562 Z" stroke="none"/>
          <path d="M 116.5000228881836 4.999984741210938 C 108.9316253662109 4.999984741210938 101.3694610595703 5.762161254882812 94.02359008789062 7.265350341796875 C 86.86695861816406 8.729827880859375 79.82748413085938 10.91499328613281 73.10072326660156 13.76016235351562 C 66.49494934082031 16.55415344238281 60.12332153320312 20.01261901855469 54.16279602050781 24.03948974609375 C 48.25758361816406 28.02896118164062 42.70445251464844 32.61076354980469 37.6575927734375 37.6575927734375 C 32.61076354980469 42.70445251464844 28.02896118164062 48.25758361816406 24.03948974609375 54.16279602050781 C 20.01261901855469 60.12332153320312 16.55415344238281 66.49494934082031 13.76016235351562 73.10072326660156 C 10.91499328613281 79.82748413085938 8.729827880859375 86.86695861816406 7.265350341796875 94.02359008789062 C 5.762161254882812 101.3694610595703 4.999984741210938 108.9316253662109 4.999984741210938 116.5000228881836 C 4.999984741210938 124.0684204101562 5.762161254882812 131.6305847167969 7.265350341796875 138.9764556884766 C 8.729827880859375 146.133056640625 10.91499328613281 153.1725158691406 13.76016235351562 159.8993225097656 C 16.55415344238281 166.5050659179688 20.01261901855469 172.8767242431641 24.03948974609375 178.8372192382812 C 28.02896118164062 184.742431640625 32.61076354980469 190.2955932617188 37.6575927734375 195.3424224853516 C 42.70445251464844 200.3892822265625 48.25758361816406 204.9710845947266 54.16279602050781 208.9605560302734 C 60.12332153320312 212.9874267578125 66.49494934082031 216.4458923339844 73.10072326660156 219.2398834228516 C 79.82748413085938 222.0850524902344 86.86695861816406 224.2702178955078 94.02359008789062 225.7346954345703 C 101.3694610595703 227.2378845214844 108.9316253662109 228.0000610351562 116.5000228881836 228.0000610351562 C 124.0684204101562 228.0000610351562 131.6305847167969 227.2378845214844 138.9764556884766 225.7346954345703 C 146.133056640625 224.2702178955078 153.1725158691406 222.0850524902344 159.8993225097656 219.2398834228516 C 166.5050659179688 216.4458923339844 172.8766937255859 212.9874267578125 178.8372192382812 208.9605560302734 C 184.742431640625 204.9710845947266 190.2955932617188 200.3892822265625 195.3424224853516 195.3424224853516 C 200.3892822265625 190.2955932617188 204.9710845947266 184.742431640625 208.9605560302734 178.8372192382812 C 212.9874267578125 172.8766937255859 216.4458923339844 166.5050659179688 219.2398834228516 159.8993225097656 C 222.0850524902344 153.1725158691406 224.2702178955078 146.133056640625 225.7346954345703 138.9764556884766 C 227.2378845214844 131.6305847167969 228.0000610351562 124.0684204101562 228.0000610351562 116.5000228881836 C 228.0000610351562 108.9316253662109 227.2378845214844 101.3694610595703 225.7346954345703 94.02359008789062 C 224.2702178955078 86.86695861816406 222.0850524902344 79.82748413085938 219.2398834228516 73.10072326660156 C 216.4458923339844 66.49494934082031 212.9874267578125 60.12332153320312 208.9605560302734 54.16279602050781 C 204.9710845947266 48.25758361816406 200.3892822265625 42.70445251464844 195.3424224853516 37.6575927734375 C 190.2955932617188 32.61076354980469 184.742431640625 28.02896118164062 178.8372192382812 24.03948974609375 C 172.8767242431641 20.01261901855469 166.5050659179688 16.55415344238281 159.8993225097656 13.76016235351562 C 153.1725158691406 10.91499328613281 146.133056640625 8.729827880859375 138.9764556884766 7.265350341796875 C 131.6305847167969 5.762161254882812 124.0684204101562 4.999984741210938 116.5000228881836 4.999984741210938 M 116.5000228881836 -1.52587890625e-05 C 180.8411560058594 -1.52587890625e-05 233.0000610351562 52.15885925292969 233.0000610351562 116.5000228881836 C 233.0000610351562 180.8411560058594 180.8411560058594 233.0000610351562 116.5000228881836 233.0000610351562 C 52.15885925292969 233.0000610351562 -1.52587890625e-05 180.8411560058594 -1.52587890625e-05 116.5000228881836 C -1.52587890625e-05 52.15885925292969 52.15885925292969 -1.52587890625e-05 116.5000228881836 -1.52587890625e-05 Z" stroke="none"/>
        </g>
        <g transform="matrix(1, 0, 0, 1, 6574.14, 1708.14)" filter="url(#Path_18803)">
          <g id="Path_18803-3" data-name="Path 18803" transform="translate(3.86 3.86)" fill="#fff">
            <path d="M 116.5000228881836 230.5000610351562 C 108.7636489868164 230.5000610351562 101.0328369140625 229.7208099365234 93.52239990234375 228.1839294433594 C 86.20408630371094 226.6864013671875 79.00558471679688 224.4518737792969 72.12683868408203 221.5424041748047 C 65.37239837646484 218.6854858398438 58.8575553894043 215.1493377685547 52.76327133178711 211.0321197509766 C 46.72624206542969 206.9535522460938 41.04917907714844 202.2695617675781 35.88983535766602 197.1101837158203 C 30.73046112060547 191.9508361816406 26.04646110534668 186.2738037109375 21.96792984008789 180.2367401123047 C 17.85070991516113 174.1424560546875 14.3145227432251 167.6276092529297 11.45764827728271 160.8731842041016 C 8.548178672790527 153.9944305419922 6.313647747039795 146.7959289550781 4.816116809844971 139.4776458740234 C 3.279241561889648 131.9671783447266 2.499991655349731 124.2363967895508 2.499991655349731 116.5000228881836 C 2.499991655349731 108.7636489868164 3.279241561889648 101.0328369140625 4.816116809844971 93.52239990234375 C 6.313647747039795 86.20408630371094 8.548178672790527 79.00558471679688 11.45764827728271 72.12683868408203 C 14.3145227432251 65.37239837646484 17.85070991516113 58.8575553894043 21.96792984008789 52.76327133178711 C 26.04646110534668 46.72624206542969 30.73046112060547 41.04917907714844 35.88983535766602 35.88983535766602 C 41.04917907714844 30.73046112060547 46.72624206542969 26.04646110534668 52.76327133178711 21.96792984008789 C 58.8575553894043 17.85070991516113 65.37239837646484 14.3145227432251 72.12683868408203 11.45764827728271 C 79.00558471679688 8.548178672790527 86.20408630371094 6.313647747039795 93.52239990234375 4.816116809844971 C 101.0328369140625 3.279241561889648 108.7636489868164 2.499991655349731 116.5000228881836 2.499991655349731 C 124.2363967895508 2.499991655349731 131.9671783447266 3.279241561889648 139.4776458740234 4.816116809844971 C 146.7959289550781 6.313647747039795 153.9944305419922 8.548178672790527 160.8731842041016 11.45764827728271 C 167.6276092529297 14.3145227432251 174.1424560546875 17.85070991516113 180.2367401123047 21.96792984008789 C 186.2738037109375 26.04646110534668 191.9508361816406 30.73046112060547 197.1101837158203 35.88983535766602 C 202.2695617675781 41.04917907714844 206.9535522460938 46.72624206542969 211.0321197509766 52.76327133178711 C 215.1493377685547 58.8575553894043 218.6854858398438 65.37239837646484 221.5424041748047 72.12683868408203 C 224.4518737792969 79.00558471679688 226.6864013671875 86.20408630371094 228.1839294433594 93.52239990234375 C 229.7208099365234 101.0328369140625 230.5000610351562 108.7636489868164 230.5000610351562 116.5000228881836 C 230.5000610351562 124.2363967895508 229.7208099365234 131.9671783447266 228.1839294433594 139.4776458740234 C 226.6864013671875 146.7959289550781 224.4518737792969 153.9944305419922 221.5424041748047 160.8731842041016 C 218.6854858398438 167.6276092529297 215.1493377685547 174.1424560546875 211.0321197509766 180.2367401123047 C 206.9535522460938 186.2738037109375 202.2695617675781 191.9508361816406 197.1101837158203 197.1101837158203 C 191.9508361816406 202.2695617675781 186.2738037109375 206.9535522460938 180.2367401123047 211.0321197509766 C 174.1424560546875 215.1493377685547 167.6276092529297 218.6854858398438 160.8731842041016 221.5424041748047 C 153.9944305419922 224.4518737792969 146.7959289550781 226.6864013671875 139.4776458740234 228.1839294433594 C 131.9671783447266 229.7208099365234 124.2363967895508 230.5000610351562 116.5000228881836 230.5000610351562 Z" stroke="none"/>
            <path d="M 116.5000228881836 4.999984741210938 C 108.9316253662109 4.999984741210938 101.3694610595703 5.762161254882812 94.02359008789062 7.265350341796875 C 86.86695861816406 8.729827880859375 79.82748413085938 10.91499328613281 73.10072326660156 13.76016235351562 C 66.49494934082031 16.55415344238281 60.12332153320312 20.01261901855469 54.16279602050781 24.03948974609375 C 48.25758361816406 28.02896118164062 42.70445251464844 32.61076354980469 37.6575927734375 37.6575927734375 C 32.61076354980469 42.70445251464844 28.02896118164062 48.25758361816406 24.03948974609375 54.16279602050781 C 20.01261901855469 60.12332153320312 16.55415344238281 66.49494934082031 13.76016235351562 73.10072326660156 C 10.91499328613281 79.82748413085938 8.729827880859375 86.86695861816406 7.265350341796875 94.02359008789062 C 5.762161254882812 101.3694610595703 4.999984741210938 108.9316253662109 4.999984741210938 116.5000228881836 C 4.999984741210938 124.0684204101562 5.762161254882812 131.6305847167969 7.265350341796875 138.9764556884766 C 8.729827880859375 146.133056640625 10.91499328613281 153.1725158691406 13.76016235351562 159.8993225097656 C 16.55415344238281 166.5050659179688 20.01261901855469 172.8767242431641 24.03948974609375 178.8372192382812 C 28.02896118164062 184.742431640625 32.61076354980469 190.2955932617188 37.6575927734375 195.3424224853516 C 42.70445251464844 200.3892822265625 48.25758361816406 204.9710845947266 54.16279602050781 208.9605560302734 C 60.12332153320312 212.9874267578125 66.49494934082031 216.4458923339844 73.10072326660156 219.2398834228516 C 79.82748413085938 222.0850524902344 86.86695861816406 224.2702178955078 94.02359008789062 225.7346954345703 C 101.3694610595703 227.2378845214844 108.9316253662109 228.0000610351562 116.5000228881836 228.0000610351562 C 124.0684204101562 228.0000610351562 131.6305847167969 227.2378845214844 138.9764556884766 225.7346954345703 C 146.133056640625 224.2702178955078 153.1725158691406 222.0850524902344 159.8993225097656 219.2398834228516 C 166.5050659179688 216.4458923339844 172.8766937255859 212.9874267578125 178.8372192382812 208.9605560302734 C 184.742431640625 204.9710845947266 190.2955932617188 200.3892822265625 195.3424224853516 195.3424224853516 C 200.3892822265625 190.2955932617188 204.9710845947266 184.742431640625 208.9605560302734 178.8372192382812 C 212.9874267578125 172.8766937255859 216.4458923339844 166.5050659179688 219.2398834228516 159.8993225097656 C 222.0850524902344 153.1725158691406 224.2702178955078 146.133056640625 225.7346954345703 138.9764556884766 C 227.2378845214844 131.6305847167969 228.0000610351562 124.0684204101562 228.0000610351562 116.5000228881836 C 228.0000610351562 108.9316253662109 227.2378845214844 101.3694610595703 225.7346954345703 94.02359008789062 C 224.2702178955078 86.86695861816406 222.0850524902344 79.82748413085938 219.2398834228516 73.10072326660156 C 216.4458923339844 66.49494934082031 212.9874267578125 60.12332153320312 208.9605560302734 54.16279602050781 C 204.9710845947266 48.25758361816406 200.3892822265625 42.70445251464844 195.3424224853516 37.6575927734375 C 190.2955932617188 32.61076354980469 184.742431640625 28.02896118164062 178.8372192382812 24.03948974609375 C 172.8767242431641 20.01261901855469 166.5050659179688 16.55415344238281 159.8993225097656 13.76016235351562 C 153.1725158691406 10.91499328613281 146.133056640625 8.729827880859375 138.9764556884766 7.265350341796875 C 131.6305847167969 5.762161254882812 124.0684204101562 4.999984741210938 116.5000228881836 4.999984741210938 M 116.5000228881836 -1.52587890625e-05 C 180.8411560058594 -1.52587890625e-05 233.0000610351562 52.15885925292969 233.0000610351562 116.5000228881836 C 233.0000610351562 180.8411560058594 180.8411560058594 233.0000610351562 116.5000228881836 233.0000610351562 C 52.15885925292969 233.0000610351562 -1.52587890625e-05 180.8411560058594 -1.52587890625e-05 116.5000228881836 C -1.52587890625e-05 52.15885925292969 52.15885925292969 -1.52587890625e-05 116.5000228881836 -1.52587890625e-05 Z" stroke="none"/>
          </g>
        </g>
        <g id="Path_18803-4" data-name="Path 18803" transform="translate(6578 1712)" fill="none">
          <path d="M 116.5000228881836 230.5000610351562 C 108.7636489868164 230.5000610351562 101.0328369140625 229.7208099365234 93.52239990234375 228.1839294433594 C 86.20408630371094 226.6864013671875 79.00558471679688 224.4518737792969 72.12683868408203 221.5424041748047 C 65.37239837646484 218.6854858398438 58.8575553894043 215.1493377685547 52.76327133178711 211.0321197509766 C 46.72624206542969 206.9535522460938 41.04917907714844 202.2695617675781 35.88983535766602 197.1101837158203 C 30.73046112060547 191.9508361816406 26.04646110534668 186.2738037109375 21.96792984008789 180.2367401123047 C 17.85070991516113 174.1424560546875 14.3145227432251 167.6276092529297 11.45764827728271 160.8731842041016 C 8.548178672790527 153.9944305419922 6.313647747039795 146.7959289550781 4.816116809844971 139.4776458740234 C 3.279241561889648 131.9671783447266 2.499991655349731 124.2363967895508 2.499991655349731 116.5000228881836 C 2.499991655349731 108.7636489868164 3.279241561889648 101.0328369140625 4.816116809844971 93.52239990234375 C 6.313647747039795 86.20408630371094 8.548178672790527 79.00558471679688 11.45764827728271 72.12683868408203 C 14.3145227432251 65.37239837646484 17.85070991516113 58.8575553894043 21.96792984008789 52.76327133178711 C 26.04646110534668 46.72624206542969 30.73046112060547 41.04917907714844 35.88983535766602 35.88983535766602 C 41.04917907714844 30.73046112060547 46.72624206542969 26.04646110534668 52.76327133178711 21.96792984008789 C 58.8575553894043 17.85070991516113 65.37239837646484 14.3145227432251 72.12683868408203 11.45764827728271 C 79.00558471679688 8.548178672790527 86.20408630371094 6.313647747039795 93.52239990234375 4.816116809844971 C 101.0328369140625 3.279241561889648 108.7636489868164 2.499991655349731 116.5000228881836 2.499991655349731 C 124.2363967895508 2.499991655349731 131.9671783447266 3.279241561889648 139.4776458740234 4.816116809844971 C 146.7959289550781 6.313647747039795 153.9944305419922 8.548178672790527 160.8731842041016 11.45764827728271 C 167.6276092529297 14.3145227432251 174.1424560546875 17.85070991516113 180.2367401123047 21.96792984008789 C 186.2738037109375 26.04646110534668 191.9508361816406 30.73046112060547 197.1101837158203 35.88983535766602 C 202.2695617675781 41.04917907714844 206.9535522460938 46.72624206542969 211.0321197509766 52.76327133178711 C 215.1493377685547 58.8575553894043 218.6854858398438 65.37239837646484 221.5424041748047 72.12683868408203 C 224.4518737792969 79.00558471679688 226.6864013671875 86.20408630371094 228.1839294433594 93.52239990234375 C 229.7208099365234 101.0328369140625 230.5000610351562 108.7636489868164 230.5000610351562 116.5000228881836 C 230.5000610351562 124.2363967895508 229.7208099365234 131.9671783447266 228.1839294433594 139.4776458740234 C 226.6864013671875 146.7959289550781 224.4518737792969 153.9944305419922 221.5424041748047 160.8731842041016 C 218.6854858398438 167.6276092529297 215.1493377685547 174.1424560546875 211.0321197509766 180.2367401123047 C 206.9535522460938 186.2738037109375 202.2695617675781 191.9508361816406 197.1101837158203 197.1101837158203 C 191.9508361816406 202.2695617675781 186.2738037109375 206.9535522460938 180.2367401123047 211.0321197509766 C 174.1424560546875 215.1493377685547 167.6276092529297 218.6854858398438 160.8731842041016 221.5424041748047 C 153.9944305419922 224.4518737792969 146.7959289550781 226.6864013671875 139.4776458740234 228.1839294433594 C 131.9671783447266 229.7208099365234 124.2363967895508 230.5000610351562 116.5000228881836 230.5000610351562 Z" stroke="none"/>
          <path d="M 116.5000228881836 4.999984741210938 C 108.9316253662109 4.999984741210938 101.3694610595703 5.762161254882812 94.02359008789062 7.265350341796875 C 86.86695861816406 8.729827880859375 79.82748413085938 10.91499328613281 73.10072326660156 13.76016235351562 C 66.49494934082031 16.55415344238281 60.12332153320312 20.01261901855469 54.16279602050781 24.03948974609375 C 48.25758361816406 28.02896118164062 42.70445251464844 32.61076354980469 37.6575927734375 37.6575927734375 C 32.61076354980469 42.70445251464844 28.02896118164062 48.25758361816406 24.03948974609375 54.16279602050781 C 20.01261901855469 60.12332153320312 16.55415344238281 66.49494934082031 13.76016235351562 73.10072326660156 C 10.91499328613281 79.82748413085938 8.729827880859375 86.86695861816406 7.265350341796875 94.02359008789062 C 5.762161254882812 101.3694610595703 4.999984741210938 108.9316253662109 4.999984741210938 116.5000228881836 C 4.999984741210938 124.0684204101562 5.762161254882812 131.6305847167969 7.265350341796875 138.9764556884766 C 8.729827880859375 146.133056640625 10.91499328613281 153.1725158691406 13.76016235351562 159.8993225097656 C 16.55415344238281 166.5050659179688 20.01261901855469 172.8767242431641 24.03948974609375 178.8372192382812 C 28.02896118164062 184.742431640625 32.61076354980469 190.2955932617188 37.6575927734375 195.3424224853516 C 42.70445251464844 200.3892822265625 48.25758361816406 204.9710845947266 54.16279602050781 208.9605560302734 C 60.12332153320312 212.9874267578125 66.49494934082031 216.4458923339844 73.10072326660156 219.2398834228516 C 79.82748413085938 222.0850524902344 86.86695861816406 224.2702178955078 94.02359008789062 225.7346954345703 C 101.3694610595703 227.2378845214844 108.9316253662109 228.0000610351562 116.5000228881836 228.0000610351562 C 124.0684204101562 228.0000610351562 131.6305847167969 227.2378845214844 138.9764556884766 225.7346954345703 C 146.133056640625 224.2702178955078 153.1725158691406 222.0850524902344 159.8993225097656 219.2398834228516 C 166.5050659179688 216.4458923339844 172.8766937255859 212.9874267578125 178.8372192382812 208.9605560302734 C 184.742431640625 204.9710845947266 190.2955932617188 200.3892822265625 195.3424224853516 195.3424224853516 C 200.3892822265625 190.2955932617188 204.9710845947266 184.742431640625 208.9605560302734 178.8372192382812 C 212.9874267578125 172.8766937255859 216.4458923339844 166.5050659179688 219.2398834228516 159.8993225097656 C 222.0850524902344 153.1725158691406 224.2702178955078 146.133056640625 225.7346954345703 138.9764556884766 C 227.2378845214844 131.6305847167969 228.0000610351562 124.0684204101562 228.0000610351562 116.5000228881836 C 228.0000610351562 108.9316253662109 227.2378845214844 101.3694610595703 225.7346954345703 94.02359008789062 C 224.2702178955078 86.86695861816406 222.0850524902344 79.82748413085938 219.2398834228516 73.10072326660156 C 216.4458923339844 66.49494934082031 212.9874267578125 60.12332153320312 208.9605560302734 54.16279602050781 C 204.9710845947266 48.25758361816406 200.3892822265625 42.70445251464844 195.3424224853516 37.6575927734375 C 190.2955932617188 32.61076354980469 184.742431640625 28.02896118164062 178.8372192382812 24.03948974609375 C 172.8767242431641 20.01261901855469 166.5050659179688 16.55415344238281 159.8993225097656 13.76016235351562 C 153.1725158691406 10.91499328613281 146.133056640625 8.729827880859375 138.9764556884766 7.265350341796875 C 131.6305847167969 5.762161254882812 124.0684204101562 4.999984741210938 116.5000228881836 4.999984741210938 M 116.5000228881836 -1.52587890625e-05 C 180.8411560058594 -1.52587890625e-05 233.0000610351562 52.15885925292969 233.0000610351562 116.5000228881836 C 233.0000610351562 180.8411560058594 180.8411560058594 233.0000610351562 116.5000228881836 233.0000610351562 C 52.15885925292969 233.0000610351562 -1.52587890625e-05 180.8411560058594 -1.52587890625e-05 116.5000228881836 C -1.52587890625e-05 52.15885925292969 52.15885925292969 -1.52587890625e-05 116.5000228881836 -1.52587890625e-05 Z" stroke="none" fill="#a861df"/>
        </g>
      </g>
      <path id="Path_18804" data-name="Path 18804" d="M107.514,0A107.514,107.514,0,1,1,0,107.514,107.514,107.514,0,0,1,107.514,0Z" transform="translate(6586.986 1720.986)" fill="#501784"/>
      <path id="Path_18805" data-name="Path 18805" d="M106,0A106,106,0,1,1,0,106,106,106,0,0,1,106,0Z" transform="translate(6588.783 1722.783)" fill="#a560e3"/>
    </g>
    <g class="wheel" id="Group_15314" data-name="Group 15314" transform="translate(-5518.559 -1887.712)">
      <g id="Group_15302" data-name="Group 15302" transform="translate(-692.941 199.712)">
        <path id="Path_11199" data-name="Path 11199" d="M129.216,104.091l-71.824-74.7C77.274,10.113,101.578.251,129.216.251Z" transform="translate(7257.825 2402.854)" fill="#b27ce2"/>
        <path id="Path_11200" data-name="Path 11200" d="M129.216,104.091l-71.824-74.7C77.274,10.113,101.578.251,129.216.251Z" transform="translate(7257.825 2402.854)" fill="none"/>
        <path id="Path_11201" data-name="Path 11201" d="M103.72,127.448.388,123.824C1.353,96.084,12.015,72.033,31.9,52.752Z" transform="translate(7283.335 2379.485)" fill="#7a37b8"/>
        <path id="Path_11202" data-name="Path 11202" d="M103.72,127.448.388,123.824C1.353,96.084,12.015,72.033,31.9,52.752Z" transform="translate(7283.335 2379.485)" fill="none"/>
        <path id="Path_11203" data-name="Path 11203" d="M103.658,184.409,25.625,252.534C7.493,231.585-.638,208.525.326,180.785Z" transform="translate(7283.397 2322.498)" fill="#330f54"/>
        <path id="Path_11204" data-name="Path 11204" d="M103.658,184.409,25.625,252.534C7.493,231.585-.638,208.525.326,180.785Z" transform="translate(7283.397 2322.498)" fill="none"/>
        <path id="Path_11205" data-name="Path 11205" d="M124.192,187.313,115.18,290.758c-27.532-2.419-50.889-14.371-69.021-35.32Z" transform="translate(7262.863 2319.579)" fill="#b27ce2"/>
        <path id="Path_11206" data-name="Path 11206" d="M124.192,187.313,115.18,290.758c-27.532-2.419-50.889-14.371-69.021-35.32Z" transform="translate(7262.863 2319.579)" fill="none"/>
        <path id="Path_11207" data-name="Path 11207" d="M180.045,187.313l65.068,80.7c-21.478,17.468-46.547,25.165-74.08,22.746Z" transform="translate(7206.972 2319.579)" fill="#a560e3"/>
        <path id="Path_11208" data-name="Path 11208" d="M180.045,187.313l65.068,80.7c-21.478,17.468-46.547,25.165-74.08,22.746Z" transform="translate(7206.972 2319.579)" fill="none"/>
        <path id="Path_11209" data-name="Path 11209" d="M187.337,187.313l102.388,14.452c-3.846,27.487-15.841,48.779-37.32,66.247Z" transform="translate(7199.664 2319.579)" fill="#e0c8f5"/>
        <path id="Path_11210" data-name="Path 11210" d="M187.337,187.313l102.388,14.452c-3.846,27.487-15.841,48.779-37.32,66.247Z" transform="translate(7199.664 2319.579)" fill="none"/>
        <path id="Path_11211" data-name="Path 11211" d="M187.337,138.4,270.985,77.36c16.245,22.456,22.587,48,18.74,75.488Z" transform="translate(7199.664 2368.532)" fill="#501784"/>
        <path id="Path_11212" data-name="Path 11212" d="M187.337,138.4,270.985,77.36c16.245,22.456,22.587,48,18.74,75.488Z" transform="translate(7199.664 2368.532)" fill="none"/>
        <path id="Path_11213" data-name="Path 11213" d="M187.337,105.355,205.291,3.092c27.218,4.82,49.449,18.771,65.694,41.227Z" transform="translate(7199.664 2401.591)" fill="#a560e3"/>
        <path id="Path_11214" data-name="Path 11214" d="M187.337,105.355,205.291,3.092c27.218,4.82,49.449,18.771,65.694,41.227Z" transform="translate(7199.664 2401.591)" fill="none"/>
        <path id="Path_11215" data-name="Path 11215" d="M187.337,104.091V.251a89.776,89.776,0,0,1,17.954,1.577Z" transform="translate(7199.688 2402.854)" fill="#fdfcfe"/>
        <path id="Path_11216" data-name="Path 11216" d="M187.337,104.091V.251a89.776,89.776,0,0,1,17.954,1.577Z" transform="translate(7199.688 2402.854)" fill="none"/>
        <rect id="Rectangle_7012" data-name="Rectangle 7012" width="214" height="214" transform="translate(7280 2400)" fill="none"/>
      </g>
      <text id="J_A_C_K_P_O_T" data-name="J
A
C
K
P
O
T" transform="matrix(0.996, 0.087, -0.087, 0.996, 6702.784, 2611.517)" fill="#fa5158" font-size="6" font-family="Rubik-Bold, Rubik" font-weight="700" letter-spacing="0.5em"><tspan x="-2.013" y="0">J</tspan><tspan x="-2.148" y="8">A</tspan><tspan x="-2.106" y="16">C</tspan><tspan x="-1.989" y="24">K</tspan><tspan x="-2.028" y="32">P</tspan><tspan x="-2.136" y="40">O</tspan><tspan x="-1.89" y="48">T</tspan></text>
      <g id="Group_15304" data-name="Group 15304" transform="translate(6646.1 2623.499) rotate(-20)">
        <g transform="matrix(0.94, 0.34, -0.34, 0.94, -55.33, -59.67)" filter="url(#_3)">
          <text id="_3-2" data-name="+3" transform="translate(90.6 49.02) rotate(-20)" fill="#fdfcfe" font-size="20" font-family="Montserrat-Bold, Montserrat" font-weight="700" letter-spacing="0em"><tspan x="-11.712" y="0">+3</tspan></text>
        </g>
        <g transform="matrix(0.94, 0.34, -0.34, 0.94, -55.33, -59.67)" filter="url(#MPs)">
          <text id="MPs-9" data-name="MPs" transform="translate(95.39 62.18) rotate(-20)" fill="#fdfcfe" font-size="10" font-family="Rubik-Regular, Rubik" letter-spacing="0em"><tspan x="-9.731" y="0">MPs</tspan></text>
        </g>
      </g>
      <g id="Group_15305" data-name="Group 15305" transform="matrix(0.848, 0.53, -0.53, 0.848, 6734.58, 2620.188)">
        <g transform="matrix(0.85, -0.53, 0.53, 0.85, -154.37, 56.56)" filter="url(#_1)">
          <text id="_1-2" data-name="+1" transform="matrix(0.85, 0.53, -0.53, 0.85, 162.73, 55.48)" fill="#fdfcfe" font-size="20" font-family="Montserrat-Bold, Montserrat" font-weight="700" letter-spacing="0em"><tspan x="-9.702" y="0">+1</tspan></text>
        </g>
        <g transform="matrix(0.85, -0.53, 0.53, 0.85, -154.37, 56.56)" filter="url(#MPs-2)">
          <text id="MPs-10" data-name="MPs" transform="matrix(0.85, 0.53, -0.53, 0.85, 155.31, 67.36)" fill="#fdfcfe" font-size="10" font-family="Rubik-Regular, Rubik" letter-spacing="0em"><tspan x="-9.731" y="0">MPs</tspan></text>
        </g>
      </g>
      <g id="Group_15306" data-name="Group 15306" transform="translate(6783.241 2670.76) rotate(76)">
        <g transform="matrix(0.24, -0.97, 0.97, 0.24, -132.6, 182.9)" filter="url(#_15)">
          <text id="_15-2" data-name="+15" transform="translate(195.83 101.26) rotate(76)" fill="#fdfcfe" font-size="20" font-family="Montserrat-Bold, Montserrat" font-weight="700" letter-spacing="0em"><tspan x="-15.655" y="0">+15</tspan></text>
        </g>
        <g transform="matrix(0.24, -0.97, 0.97, 0.24, -132.6, 182.9)" filter="url(#MPs-3)">
          <text id="MPs-11" data-name="MPs" transform="translate(182.25 104.65) rotate(76)" fill="#fdfcfe" font-size="10" font-family="Rubik-Regular, Rubik" letter-spacing="0em"><tspan x="-9.731" y="0">MPs</tspan></text>
        </g>
      </g>
      <g id="Group_15307" data-name="Group 15307" transform="translate(6784.22 2741.533) rotate(120)">
        <g transform="matrix(-0.5, -0.87, 0.87, -0.5, -29.13, 259.91)" filter="url(#_5)">
          <text id="_5-2" data-name="+5" transform="translate(188.95 157.78) rotate(120)" fill="#fdfcfe" font-size="20" font-family="Montserrat-Bold, Montserrat" font-weight="700" letter-spacing="0em"><tspan x="-11.943" y="0">+5</tspan></text>
        </g>
        <g transform="matrix(-0.5, -0.87, 0.87, -0.5, -29.13, 259.91)" filter="url(#MPs-4)">
          <text id="MPs-12" data-name="MPs" transform="translate(176.83 150.78) rotate(120)" fill="#fdfcfe" font-size="10" font-family="Rubik-Regular, Rubik" letter-spacing="0em"><tspan x="-9.731" y="0">MPs</tspan></text>
        </g>
      </g>
      <g id="Group_15308" data-name="Group 15308" transform="translate(6731.887 2794.177) rotate(164)">
        <g transform="matrix(-0.96, -0.28, 0.28, -0.96, 94.78, 243.38)" filter="url(#_13)">
          <text id="_13-2" data-name="+13" transform="translate(140.87 194.71) rotate(164)" fill="#fdfcfe" font-size="20" font-family="Montserrat-Bold, Montserrat" font-weight="700" letter-spacing="0em"><tspan x="-15.625" y="0">+13</tspan></text>
        </g>
        <g transform="matrix(-0.96, -0.28, 0.28, -0.96, 94.78, 243.38)" filter="url(#MPs-5)">
          <text id="MPs-13" data-name="MPs" transform="translate(137.01 181.26) rotate(164)" fill="#fdfcfe" font-size="10" font-family="Rubik-Regular, Rubik" letter-spacing="0em"><tspan x="-9.731" y="0">MPs</tspan></text>
        </g>
      </g>
      <g id="Group_15309" data-name="Group 15309" transform="matrix(-0.883, -0.469, 0.469, -0.883, 6663.063, 2798.215)">
        <g transform="matrix(-0.88, 0.47, -0.47, -0.88, 178.37, 145.11)" filter="url(#_7)">
          <text id="_7-2" data-name="+7" transform="matrix(-0.88, -0.47, 0.47, -0.88, 86.02, 190.4)" fill="#fdfcfe" font-size="20" font-family="Montserrat-Bold, Montserrat" font-weight="700" letter-spacing="0em"><tspan x="-12.092" y="0">+7</tspan></text>
        </g>
        <g transform="matrix(-0.88, 0.47, -0.47, -0.88, 178.37, 145.11)" filter="url(#MPs-6)">
          <text id="MPs-14" data-name="MPs" transform="matrix(-0.88, -0.47, 0.47, -0.88, 92.59, 178.04)" fill="#fdfcfe" font-size="10" font-family="Rubik-Regular, Rubik" letter-spacing="0em"><tspan x="-9.731" y="0">MPs</tspan></text>
        </g>
      </g>
      <g id="Group_15310" data-name="Group 15310" transform="matrix(-0.309, -0.951, 0.951, -0.309, 6608.271, 2748.846)">
        <g transform="matrix(-0.31, 0.95, -0.95, -0.31, 165.23, 17.33)" filter="url(#_11)">
          <text id="_11-2" data-name="+11" transform="matrix(-0.31, -0.95, 0.95, -0.31, 47.08, 144.73)" fill="#fdfcfe" font-size="20" font-family="Montserrat-Bold, Montserrat" font-weight="700" letter-spacing="0em"><tspan x="-13.625" y="0">+11</tspan></text>
        </g>
        <g transform="matrix(-0.31, 0.95, -0.95, -0.31, 165.23, 17.33)" filter="url(#MPs-7)">
          <text id="MPs-15" data-name="MPs" transform="matrix(-0.31, -0.95, 0.95, -0.31, 60.39, 140.4)" fill="#fdfcfe" font-size="10" font-family="Rubik-Regular, Rubik" letter-spacing="0em"><tspan x="-9.731" y="0">MPs</tspan></text>
        </g>
      </g>
      <g id="Group_15311" data-name="Group 15311" transform="matrix(0.438, -0.899, 0.899, 0.438, 6602.266, 2679.743)">
        <g transform="matrix(0.44, 0.9, -0.9, 0.44, 71.42, -66.62)" filter="url(#_9)">
          <text id="_9-2" data-name="+9" transform="matrix(0.44, -0.9, 0.9, 0.44, 49.9, 89.3)" fill="#fdfcfe" font-size="20" font-family="Montserrat-Bold, Montserrat" font-weight="700" letter-spacing="0em"><tspan x="-12.363" y="0">+9</tspan></text>
        </g>
        <g transform="matrix(0.44, 0.9, -0.9, 0.44, 71.42, -66.62)" filter="url(#MPs-8)">
          <text id="MPs-16" data-name="MPs" transform="matrix(0.44, -0.9, 0.9, 0.44, 62.49, 95.43)" fill="#fdfcfe" font-size="10" font-family="Rubik-Regular, Rubik" letter-spacing="0em"><tspan x="-9.731" y="0">MPs</tspan></text>
        </g>
      </g>
    </g>
    <g class="active" id="Group_15316" data-name="Group 15316" transform="matrix(0.819, 0.574, -0.574, 0.819, 1239.741, 705.5)">
      <path id="Union_2" data-name="Union 2" d="M.008,10.973s0,0,0-.006L0,10.953A10.828,10.828,0,0,1,10.7,0a10.54,10.54,0,0,1,9.787,6.755,11.338,11.338,0,0,1,.8,4.219,24.582,24.582,0,0,1-2.962,9.354,61.342,61.342,0,0,1-7.622,10.059Z" transform="translate(1.747 1.614)" fill="#18181b"/>
      <g id="Group_12089" data-name="Group 12089" transform="translate(0 0)">
        <g id="Group_12088" data-name="Group 12088" transform="translate(0 0)">
          <g id="Group_12085" data-name="Group 12085" clip-path="url(#clip-path)">
            <path id="Path_15826-2" data-name="Path 15826" d="M23.026,11.046A11.518,11.518,0,1,0,.907,16.007c2.527,6.845,9.551,15.028,10.5,15.948a.158.158,0,0,0,.218,0c1.042-.959,9.179-9.877,11.03-17.5.019-.072.036-.146.054-.219s.035-.146.051-.219A11.515,11.515,0,0,0,23,12.4c0-.021,0-.042,0-.064.019-.269.032-.54.032-.814,0-.168,0-.324-.012-.473" transform="translate(0 0)" fill="#f05153"/>
          </g>
        </g>
        <g data-type="innerShadowGroup">
          <path id="Path_15826-3" data-name="Path 15826" d="M20.727,9.943A10.368,10.368,0,1,0,.817,14.409c2.275,6.162,8.6,13.527,9.455,14.356a.142.142,0,0,0,.2,0c.938-.863,8.263-8.891,9.929-15.753.017-.065.032-.131.048-.2s.032-.132.046-.2a10.365,10.365,0,0,0,.215-1.462c0-.019,0-.038,0-.057.017-.242.029-.486.029-.733,0-.152,0-.291-.011-.426" transform="translate(1.15 0.879)" fill="#f05153"/>
          <g transform="matrix(0.82, -0.57, 0.57, 0.82, -155.15, 100.26)" filter="url(#Path_15826)">
            <path id="Path_15826-4" data-name="Path 15826" d="M20.727,9.943A10.368,10.368,0,1,0,.817,14.409c2.275,6.162,8.6,13.527,9.455,14.356a.142.142,0,0,0,.2,0c.938-.863,8.263-8.891,9.929-15.753.017-.065.032-.131.048-.2s.032-.132.046-.2a10.365,10.365,0,0,0,.215-1.462c0-.019,0-.038,0-.057.017-.242.029-.486.029-.733,0-.152,0-.291-.011-.426" transform="matrix(0.82, 0.57, -0.57, 0.82, 185.04, 8.24)" fill="#fff"/>
          </g>
          <path id="Path_15826-5" data-name="Path 15826" d="M20.727,9.943A10.368,10.368,0,1,0,.817,14.409c2.275,6.162,8.6,13.527,9.455,14.356a.142.142,0,0,0,.2,0c.938-.863,8.263-8.891,9.929-15.753.017-.065.032-.131.048-.2s.032-.132.046-.2a10.365,10.365,0,0,0,.215-1.462c0-.019,0-.038,0-.057.017-.242.029-.486.029-.733,0-.152,0-.291-.011-.426" transform="translate(1.15 0.879)" fill="none" stroke="#f05153" stroke-width="0.5"/>
        </g>
        <g transform="matrix(0.82, -0.57, 0.57, 0.82, -155.15, 100.26)" filter="url(#Ellipse_14)">
          <circle id="Ellipse_14-2" data-name="Ellipse 14" cx="3.145" cy="3.145" r="3.145" transform="matrix(0.82, 0.57, -0.57, 0.82, 187.54, 15.95)" fill="#fdfcfe"/>
        </g>
      </g>
    </g>
    <g  class="spin cursor-pointer" id="Group_15322" data-name="Group 15322" transform="translate(0 186)">
      <circle id="Ellipse_27" data-name="Ellipse 27" cx="35" cy="35" r="35" transform="translate(1141 598)" fill="#330f54" opacity="0.298"/>
      <g transform="matrix(1, 0, 0, 1, 1055.14, 512.64)" filter="url(#Path_18809)">
        <path id="Path_18809-2" data-name="Path 18809" d="M33,0A33,33,0,1,1,0,33,33,33,0,0,1,33,0Z" transform="translate(87.86 87.36)" fill="#a560e3"/>
      </g>
      <g id="Ellipse_28" data-name="Ellipse 28" transform="translate(1147 604)" fill="#8a30db" stroke="#fdfcfe" stroke-width="0.1" opacity="0.852">
        <circle cx="29" cy="29" r="29" stroke="none"/>
        <circle cx="29" cy="29" r="28.95" fill="none"/>
      </g>
      <g id="Group_15320" data-name="Group 15320" transform="translate(1152 615)">
        <g transform="matrix(1, 0, 0, 1, -96.86, -102.36)" filter="url(#SPIN)">
          <text id="SPIN-2" data-name="SPIN" transform="translate(120.86 120.36)" fill="#fdfcfe" font-size="16" font-family="Rubik-Bold, Rubik" font-weight="700" letter-spacing="-0.001em"><tspan x="-19.044" y="0">SPIN</tspan></text>
        </g>
        <g transform="matrix(1, 0, 0, 1, -96.86, -102.36)" filter="url(#_10MPs_lần)">
          <text id="_10MPs_lần-2" data-name="10MPs/lần" transform="translate(120.86 133.36)" fill="#25e3d8" font-size="9" font-family="Montserrat-Medium, Montserrat" font-weight="500" letter-spacing="0em"><tspan x="-23.068" y="0">10MPs/lần</tspan></text>
        </g>
      </g>
    </g>
  </g>
</svg>
