<svg id="wheel" xmlns="http://www.w3.org/2000/svg" xmlns:xlink="http://www.w3.org/1999/xlink" width="578" height="578" viewBox="0 0 578 578">
  <defs>
    <filter id="Path_15829" x="0" y="0" width="578" height="578" filterUnits="userSpaceOnUse">
      <feOffset dx="2" dy="-2" input="SourceAlpha"/>
      <feGaussianBlur stdDeviation="7.5" result="blur"/>
      <feFlood flood-color="#6d20b3" result="color"/>
      <feComposite operator="out" in="SourceGraphic" in2="blur"/>
      <feComposite operator="in" in="color"/>
      <feComposite operator="in" in2="SourceGraphic"/>
    </filter>
    <filter id="_3" x="188.426" y="67.5" width="61" height="61" filterUnits="userSpaceOnUse">
      <feOffset dy="1" input="SourceAlpha"/>
      <feGaussianBlur stdDeviation="0.5" result="blur-2"/>
      <feFlood flood-opacity="0.161"/>
      <feComposite operator="in" in2="blur-2"/>
      <feComposite in="SourceGraphic"/>
    </filter>
    <filter id="MPs" x="193.426" y="125.5" width="51" height="31" filterUnits="userSpaceOnUse">
      <feOffset dy="1" input="SourceAlpha"/>
      <feGaussianBlur stdDeviation="0.5" result="blur-3"/>
      <feFlood flood-opacity="0.161"/>
      <feComposite operator="in" in2="blur-3"/>
      <feComposite in="SourceGraphic"/>
    </filter>
    <filter id="_9" x="83.484" y="178.5" width="63" height="61" filterUnits="userSpaceOnUse">
      <feOffset dy="1" input="SourceAlpha"/>
      <feGaussianBlur stdDeviation="0.5" result="blur-4"/>
      <feFlood flood-opacity="0.161"/>
      <feComposite operator="in" in2="blur-4"/>
      <feComposite in="SourceGraphic"/>
    </filter>
    <filter id="MPs-2" x="89.484" y="236.5" width="51" height="31" filterUnits="userSpaceOnUse">
      <feOffset dy="1" input="SourceAlpha"/>
      <feGaussianBlur stdDeviation="0.5" result="blur-5"/>
      <feFlood flood-opacity="0.161"/>
      <feComposite operator="in" in2="blur-5"/>
      <feComposite in="SourceGraphic"/>
    </filter>
    <filter id="_1" x="357.134" y="86.5" width="51" height="61" filterUnits="userSpaceOnUse">
      <feOffset dy="1" input="SourceAlpha"/>
      <feGaussianBlur stdDeviation="0.5" result="blur-6"/>
      <feFlood flood-opacity="0.161"/>
      <feComposite operator="in" in2="blur-6"/>
      <feComposite in="SourceGraphic"/>
    </filter>
    <filter id="MPs-3" x="357.134" y="144.5" width="51" height="31" filterUnits="userSpaceOnUse">
      <feOffset dy="1" input="SourceAlpha"/>
      <feGaussianBlur stdDeviation="0.5" result="blur-7"/>
      <feFlood flood-opacity="0.161"/>
      <feComposite operator="in" in2="blur-7"/>
      <feComposite in="SourceGraphic"/>
    </filter>
    <filter id="_15" x="426.095" y="202.5" width="79" height="61" filterUnits="userSpaceOnUse">
      <feOffset dy="1" input="SourceAlpha"/>
      <feGaussianBlur stdDeviation="0.5" result="blur-8"/>
      <feFlood flood-opacity="0.161"/>
      <feComposite operator="in" in2="blur-8"/>
      <feComposite in="SourceGraphic"/>
    </filter>
    <filter id="MPs-4" x="440.095" y="260.5" width="51" height="31" filterUnits="userSpaceOnUse">
      <feOffset dy="1" input="SourceAlpha"/>
      <feGaussianBlur stdDeviation="0.5" result="blur-9"/>
      <feFlood flood-opacity="0.161"/>
      <feComposite operator="in" in2="blur-9"/>
      <feComposite in="SourceGraphic"/>
    </filter>
    <filter id="_5" x="412.094" y="339.134" width="61" height="61" filterUnits="userSpaceOnUse">
      <feOffset dy="1" input="SourceAlpha"/>
      <feGaussianBlur stdDeviation="0.5" result="blur-10"/>
      <feFlood flood-opacity="0.161"/>
      <feComposite operator="in" in2="blur-10"/>
      <feComposite in="SourceGraphic"/>
    </filter>
    <filter id="MPs-5" x="417.094" y="397.134" width="51" height="31" filterUnits="userSpaceOnUse">
      <feOffset dy="1" input="SourceAlpha"/>
      <feGaussianBlur stdDeviation="0.5" result="blur-11"/>
      <feFlood flood-opacity="0.161"/>
      <feComposite operator="in" in2="blur-11"/>
      <feComposite in="SourceGraphic"/>
    </filter>
    <filter id="_13" x="299.094" y="421.134" width="79" height="61" filterUnits="userSpaceOnUse">
      <feOffset dy="1" input="SourceAlpha"/>
      <feGaussianBlur stdDeviation="0.5" result="blur-12"/>
      <feFlood flood-opacity="0.161"/>
      <feComposite operator="in" in2="blur-12"/>
      <feComposite in="SourceGraphic"/>
    </filter>
    <filter id="MPs-6" x="313.094" y="479.134" width="51" height="31" filterUnits="userSpaceOnUse">
      <feOffset dy="1" input="SourceAlpha"/>
      <feGaussianBlur stdDeviation="0.5" result="blur-13"/>
      <feFlood flood-opacity="0.161"/>
      <feComposite operator="in" in2="blur-13"/>
      <feComposite in="SourceGraphic"/>
    </filter>
    <filter id="_7" x="174.094" y="407.134" width="63" height="61" filterUnits="userSpaceOnUse">
      <feOffset dy="1" input="SourceAlpha"/>
      <feGaussianBlur stdDeviation="0.5" result="blur-14"/>
      <feFlood flood-opacity="0.161"/>
      <feComposite operator="in" in2="blur-14"/>
      <feComposite in="SourceGraphic"/>
    </filter>
    <filter id="MPs-7" x="180.094" y="465.134" width="51" height="31" filterUnits="userSpaceOnUse">
      <feOffset dy="1" input="SourceAlpha"/>
      <feGaussianBlur stdDeviation="0.5" result="blur-15"/>
      <feFlood flood-opacity="0.161"/>
      <feComposite operator="in" in2="blur-15"/>
      <feComposite in="SourceGraphic"/>
    </filter>
    <filter id="_11" x="81.235" y="302.713" width="69" height="61" filterUnits="userSpaceOnUse">
      <feOffset dy="1" input="SourceAlpha"/>
      <feGaussianBlur stdDeviation="0.5" result="blur-16"/>
      <feFlood flood-opacity="0.161"/>
      <feComposite operator="in" in2="blur-16"/>
      <feComposite in="SourceGraphic"/>
    </filter>
    <filter id="MPs-8" x="90.235" y="360.713" width="51" height="31" filterUnits="userSpaceOnUse">
      <feOffset dy="1" input="SourceAlpha"/>
      <feGaussianBlur stdDeviation="0.5" result="blur-17"/>
      <feFlood flood-opacity="0.161"/>
      <feComposite operator="in" in2="blur-17"/>
      <feComposite in="SourceGraphic"/>
    </filter>
    <filter id="Path_15470" x="177.926" y="179.926" width="219.707" height="219.707" filterUnits="userSpaceOnUse">
      <feOffset dx="1" dy="3" input="SourceAlpha"/>
      <feGaussianBlur stdDeviation="3" result="blur-18"/>
      <feFlood flood-opacity="0.161"/>
      <feComposite operator="in" in2="blur-18"/>
    </filter>
    <filter id="Path_15470-2" x="177.926" y="179.926" width="219.707" height="219.707" filterUnits="userSpaceOnUse">
      <feOffset dy="2" input="SourceAlpha"/>
      <feGaussianBlur stdDeviation="5" result="blur-19"/>
      <feFlood flood-opacity="0.161" result="color-2"/>
      <feComposite operator="out" in="SourceGraphic" in2="blur-19"/>
      <feComposite operator="in" in="color-2"/>
      <feComposite operator="in" in2="SourceGraphic"/>
    </filter>
    <filter id="Ellipse_11" x="191.954" y="195.219" width="190" height="190" filterUnits="userSpaceOnUse">
      <feOffset dy="3" input="SourceAlpha"/>
      <feGaussianBlur stdDeviation="3" result="blur-20"/>
      <feFlood flood-opacity="0.161"/>
      <feComposite operator="in" in2="blur-20"/>
      <feComposite in="SourceGraphic"/>
    </filter>
    <clipPath id="clip-path">
      <rect id="Rectangle_9828" data-name="Rectangle 9828" width="56.169" height="78.02" fill="none"/>
    </clipPath>
    <filter id="Path_15826">
      <feOffset dy="1" input="SourceAlpha"/>
      <feGaussianBlur stdDeviation="1" result="blur-21"/>
      <feFlood flood-opacity="0.161" result="color-3"/>
      <feComposite operator="out" in="SourceGraphic" in2="blur-21"/>
      <feComposite operator="in" in="color-3"/>
      <feComposite operator="in" in2="SourceGraphic"/>
    </filter>
    <filter id="Ellipse_14" x="439.11" y="27.731" width="24.732" height="24.732" filterUnits="userSpaceOnUse">
      <feOffset dx="0.5" dy="0.5" input="SourceAlpha"/>
      <feGaussianBlur stdDeviation="0.5" result="blur-22"/>
      <feFlood flood-color="#020202" flood-opacity="0.161"/>
      <feComposite operator="in" in2="blur-22"/>
      <feComposite in="SourceGraphic"/>
    </filter>
  </defs>
  <g data-type="innerShadowGroup">
    <g id="Path_15829-2" data-name="Path 15829" fill="#a861df">
      <path d="M 289 575.5 C 269.5596923828125 575.5 250.1323852539062 573.5416259765625 231.2576141357422 569.6793212890625 C 212.8638458251953 565.9154052734375 194.7710723876953 560.299072265625 177.4819946289062 552.9864501953125 C 160.5063018798828 545.8063354492188 144.1329193115234 536.9190673828125 128.8168487548828 526.57177734375 C 113.6456146240234 516.3223266601562 99.37923431396484 504.5513916015625 86.41392517089844 491.5860900878906 C 73.44853973388672 478.6207580566406 61.67769241333008 464.3543090820312 51.42823028564453 449.1830749511719 C 41.08084487915039 433.8670043945312 32.19369125366211 417.4936828613281 25.0135383605957 400.5179138183594 C 17.70092391967773 383.2288513183594 12.08461570739746 365.1361389160156 8.32069206237793 346.7423706054688 C 4.45838451385498 327.8676147460938 2.5 308.4403076171875 2.5 289 C 2.5 269.5596923828125 4.45838451385498 250.1323852539062 8.32069206237793 231.2576141357422 C 12.08461570739746 212.8638458251953 17.70092391967773 194.7710723876953 25.0135383605957 177.4819946289062 C 32.19369125366211 160.5063018798828 41.08084487915039 144.1329193115234 51.42823028564453 128.8168487548828 C 61.67769241333008 113.6456146240234 73.44853973388672 99.37923431396484 86.41392517089844 86.41392517089844 C 99.37923431396484 73.44853973388672 113.6456146240234 61.67769241333008 128.8168487548828 51.42823028564453 C 144.1329193115234 41.08084487915039 160.5063018798828 32.19369125366211 177.4819946289062 25.0135383605957 C 194.7710723876953 17.70092391967773 212.8638458251953 12.08461570739746 231.2576141357422 8.32069206237793 C 250.1323852539062 4.45838451385498 269.5596923828125 2.5 289 2.5 C 308.4403076171875 2.5 327.8676147460938 4.45838451385498 346.7423706054688 8.32069206237793 C 365.1361389160156 12.08461570739746 383.2288513183594 17.70092391967773 400.5179138183594 25.0135383605957 C 417.4936828613281 32.19369125366211 433.8670043945312 41.08084487915039 449.1830749511719 51.42823028564453 C 464.3543090820312 61.67769241333008 478.6207580566406 73.44853973388672 491.5860900878906 86.41392517089844 C 504.5513916015625 99.37923431396484 516.3223266601562 113.6456146240234 526.57177734375 128.8168487548828 C 536.9190673828125 144.1329193115234 545.8063354492188 160.5063018798828 552.9864501953125 177.4819946289062 C 560.299072265625 194.7710723876953 565.9154052734375 212.8638458251953 569.6793212890625 231.2576141357422 C 573.5416259765625 250.1323852539062 575.5 269.5596923828125 575.5 289 C 575.5 308.4403076171875 573.5416259765625 327.8676147460938 569.6793212890625 346.7423706054688 C 565.9154052734375 365.1361389160156 560.299072265625 383.2288513183594 552.9864501953125 400.5179138183594 C 545.8063354492188 417.4936828613281 536.9190673828125 433.8670043945312 526.57177734375 449.1830749511719 C 516.3223266601562 464.3543090820312 504.5513916015625 478.6207580566406 491.5860900878906 491.5860900878906 C 478.6207580566406 504.5513916015625 464.3543090820312 516.3223266601562 449.1830749511719 526.57177734375 C 433.8670043945312 536.9190673828125 417.4936828613281 545.8063354492188 400.5179138183594 552.9864501953125 C 383.2288513183594 560.299072265625 365.1361389160156 565.9154052734375 346.7423706054688 569.6793212890625 C 327.8676147460938 573.5416259765625 308.4403076171875 575.5 289 575.5 Z" stroke="none"/>
      <path d="M 289 5 C 269.7276916503906 5 250.468994140625 6.9412841796875 231.7587585449219 10.7698974609375 C 213.5267028808594 14.50079345703125 195.5929870605469 20.06768798828125 178.4559326171875 27.31610107421875 C 161.6288452148438 34.43328857421875 145.398681640625 43.2427978515625 130.2163696289062 53.499755859375 C 115.177001953125 63.66015625 101.0344543457031 75.328857421875 88.18170166015625 88.18170166015625 C 75.328857421875 101.0344543457031 63.66015625 115.177001953125 53.499755859375 130.2163696289062 C 43.2427978515625 145.398681640625 34.43328857421875 161.6288452148438 27.31610107421875 178.4559326171875 C 20.06768798828125 195.5929870605469 14.50079345703125 213.5267028808594 10.7698974609375 231.7587585449219 C 6.9412841796875 250.468994140625 5 269.7276916503906 5 289 C 5 308.2723083496094 6.9412841796875 327.531005859375 10.7698974609375 346.2411499023438 C 14.50079345703125 364.4733276367188 20.06768798828125 382.406982421875 27.31610107421875 399.5440673828125 C 34.43328857421875 416.3711547851562 43.2427978515625 432.6012268066406 53.499755859375 447.7836303710938 C 63.66015625 462.8229370117188 75.328857421875 476.9654541015625 88.18170166015625 489.8182983398438 C 101.0344543457031 502.671142578125 115.177001953125 514.33984375 130.2163696289062 524.500244140625 C 145.398681640625 534.7571411132812 161.6288452148438 543.5667114257812 178.4559326171875 550.6838989257812 C 195.5929870605469 557.9323120117188 213.5267028808594 563.4992065429688 231.7587585449219 567.2301025390625 C 250.468994140625 571.0587158203125 269.7276916503906 573 289 573 C 308.2723083496094 573 327.531005859375 571.0587158203125 346.2411499023438 567.2301025390625 C 364.4733276367188 563.4992065429688 382.406982421875 557.9323120117188 399.5440673828125 550.6838989257812 C 416.3711547851562 543.5667114257812 432.6012268066406 534.7571411132812 447.7836303710938 524.500244140625 C 462.8229370117188 514.33984375 476.9654541015625 502.671142578125 489.8182983398438 489.8182983398438 C 502.671142578125 476.9654541015625 514.33984375 462.8229370117188 524.500244140625 447.7836303710938 C 534.7571411132812 432.6012268066406 543.5667114257812 416.3711547851562 550.6838989257812 399.5440673828125 C 557.9323120117188 382.406982421875 563.4992065429688 364.4733276367188 567.2301025390625 346.2411499023438 C 571.0587158203125 327.531005859375 573 308.2723083496094 573 289 C 573 269.7276916503906 571.0587158203125 250.468994140625 567.2301025390625 231.7587585449219 C 563.4992065429688 213.5267028808594 557.9323120117188 195.5929870605469 550.6838989257812 178.4559326171875 C 543.5667114257812 161.6288452148438 534.7571411132812 145.398681640625 524.500244140625 130.2163696289062 C 514.33984375 115.177001953125 502.671142578125 101.0344543457031 489.8182983398438 88.18170166015625 C 476.9654541015625 75.328857421875 462.8229370117188 63.66015625 447.7836303710938 53.499755859375 C 432.6012268066406 43.2427978515625 416.3711547851562 34.43328857421875 399.5440673828125 27.31610107421875 C 382.406982421875 20.06768798828125 364.4733276367188 14.50079345703125 346.2411499023438 10.7698974609375 C 327.531005859375 6.9412841796875 308.2723083496094 5 289 5 M 289 0 C 448.6102294921875 0 578 129.3896789550781 578 289 C 578 448.6102294921875 448.6102294921875 578 289 578 C 129.3896789550781 578 0 448.6102294921875 0 289 C 0 129.3896789550781 129.3896789550781 0 289 0 Z" stroke="none"/>
    </g>
    <g transform="matrix(1, 0, 0, 1, 0, 0)" filter="url(#Path_15829)">
      <g id="Path_15829-3" data-name="Path 15829" fill="#fff">
        <path d="M 289 575.5 C 269.5596923828125 575.5 250.1323852539062 573.5416259765625 231.2576141357422 569.6793212890625 C 212.8638458251953 565.9154052734375 194.7710723876953 560.299072265625 177.4819946289062 552.9864501953125 C 160.5063018798828 545.8063354492188 144.1329193115234 536.9190673828125 128.8168487548828 526.57177734375 C 113.6456146240234 516.3223266601562 99.37923431396484 504.5513916015625 86.41392517089844 491.5860900878906 C 73.44853973388672 478.6207580566406 61.67769241333008 464.3543090820312 51.42823028564453 449.1830749511719 C 41.08084487915039 433.8670043945312 32.19369125366211 417.4936828613281 25.0135383605957 400.5179138183594 C 17.70092391967773 383.2288513183594 12.08461570739746 365.1361389160156 8.32069206237793 346.7423706054688 C 4.45838451385498 327.8676147460938 2.5 308.4403076171875 2.5 289 C 2.5 269.5596923828125 4.45838451385498 250.1323852539062 8.32069206237793 231.2576141357422 C 12.08461570739746 212.8638458251953 17.70092391967773 194.7710723876953 25.0135383605957 177.4819946289062 C 32.19369125366211 160.5063018798828 41.08084487915039 144.1329193115234 51.42823028564453 128.8168487548828 C 61.67769241333008 113.6456146240234 73.44853973388672 99.37923431396484 86.41392517089844 86.41392517089844 C 99.37923431396484 73.44853973388672 113.6456146240234 61.67769241333008 128.8168487548828 51.42823028564453 C 144.1329193115234 41.08084487915039 160.5063018798828 32.19369125366211 177.4819946289062 25.0135383605957 C 194.7710723876953 17.70092391967773 212.8638458251953 12.08461570739746 231.2576141357422 8.32069206237793 C 250.1323852539062 4.45838451385498 269.5596923828125 2.5 289 2.5 C 308.4403076171875 2.5 327.8676147460938 4.45838451385498 346.7423706054688 8.32069206237793 C 365.1361389160156 12.08461570739746 383.2288513183594 17.70092391967773 400.5179138183594 25.0135383605957 C 417.4936828613281 32.19369125366211 433.8670043945312 41.08084487915039 449.1830749511719 51.42823028564453 C 464.3543090820312 61.67769241333008 478.6207580566406 73.44853973388672 491.5860900878906 86.41392517089844 C 504.5513916015625 99.37923431396484 516.3223266601562 113.6456146240234 526.57177734375 128.8168487548828 C 536.9190673828125 144.1329193115234 545.8063354492188 160.5063018798828 552.9864501953125 177.4819946289062 C 560.299072265625 194.7710723876953 565.9154052734375 212.8638458251953 569.6793212890625 231.2576141357422 C 573.5416259765625 250.1323852539062 575.5 269.5596923828125 575.5 289 C 575.5 308.4403076171875 573.5416259765625 327.8676147460938 569.6793212890625 346.7423706054688 C 565.9154052734375 365.1361389160156 560.299072265625 383.2288513183594 552.9864501953125 400.5179138183594 C 545.8063354492188 417.4936828613281 536.9190673828125 433.8670043945312 526.57177734375 449.1830749511719 C 516.3223266601562 464.3543090820312 504.5513916015625 478.6207580566406 491.5860900878906 491.5860900878906 C 478.6207580566406 504.5513916015625 464.3543090820312 516.3223266601562 449.1830749511719 526.57177734375 C 433.8670043945312 536.9190673828125 417.4936828613281 545.8063354492188 400.5179138183594 552.9864501953125 C 383.2288513183594 560.299072265625 365.1361389160156 565.9154052734375 346.7423706054688 569.6793212890625 C 327.8676147460938 573.5416259765625 308.4403076171875 575.5 289 575.5 Z" stroke="none"/>
        <path d="M 289 5 C 269.7276916503906 5 250.468994140625 6.9412841796875 231.7587585449219 10.7698974609375 C 213.5267028808594 14.50079345703125 195.5929870605469 20.06768798828125 178.4559326171875 27.31610107421875 C 161.6288452148438 34.43328857421875 145.398681640625 43.2427978515625 130.2163696289062 53.499755859375 C 115.177001953125 63.66015625 101.0344543457031 75.328857421875 88.18170166015625 88.18170166015625 C 75.328857421875 101.0344543457031 63.66015625 115.177001953125 53.499755859375 130.2163696289062 C 43.2427978515625 145.398681640625 34.43328857421875 161.6288452148438 27.31610107421875 178.4559326171875 C 20.06768798828125 195.5929870605469 14.50079345703125 213.5267028808594 10.7698974609375 231.7587585449219 C 6.9412841796875 250.468994140625 5 269.7276916503906 5 289 C 5 308.2723083496094 6.9412841796875 327.531005859375 10.7698974609375 346.2411499023438 C 14.50079345703125 364.4733276367188 20.06768798828125 382.406982421875 27.31610107421875 399.5440673828125 C 34.43328857421875 416.3711547851562 43.2427978515625 432.6012268066406 53.499755859375 447.7836303710938 C 63.66015625 462.8229370117188 75.328857421875 476.9654541015625 88.18170166015625 489.8182983398438 C 101.0344543457031 502.671142578125 115.177001953125 514.33984375 130.2163696289062 524.500244140625 C 145.398681640625 534.7571411132812 161.6288452148438 543.5667114257812 178.4559326171875 550.6838989257812 C 195.5929870605469 557.9323120117188 213.5267028808594 563.4992065429688 231.7587585449219 567.2301025390625 C 250.468994140625 571.0587158203125 269.7276916503906 573 289 573 C 308.2723083496094 573 327.531005859375 571.0587158203125 346.2411499023438 567.2301025390625 C 364.4733276367188 563.4992065429688 382.406982421875 557.9323120117188 399.5440673828125 550.6838989257812 C 416.3711547851562 543.5667114257812 432.6012268066406 534.7571411132812 447.7836303710938 524.500244140625 C 462.8229370117188 514.33984375 476.9654541015625 502.671142578125 489.8182983398438 489.8182983398438 C 502.671142578125 476.9654541015625 514.33984375 462.8229370117188 524.500244140625 447.7836303710938 C 534.7571411132812 432.6012268066406 543.5667114257812 416.3711547851562 550.6838989257812 399.5440673828125 C 557.9323120117188 382.406982421875 563.4992065429688 364.4733276367188 567.2301025390625 346.2411499023438 C 571.0587158203125 327.531005859375 573 308.2723083496094 573 289 C 573 269.7276916503906 571.0587158203125 250.468994140625 567.2301025390625 231.7587585449219 C 563.4992065429688 213.5267028808594 557.9323120117188 195.5929870605469 550.6838989257812 178.4559326171875 C 543.5667114257812 161.6288452148438 534.7571411132812 145.398681640625 524.500244140625 130.2163696289062 C 514.33984375 115.177001953125 502.671142578125 101.0344543457031 489.8182983398438 88.18170166015625 C 476.9654541015625 75.328857421875 462.8229370117188 63.66015625 447.7836303710938 53.499755859375 C 432.6012268066406 43.2427978515625 416.3711547851562 34.43328857421875 399.5440673828125 27.31610107421875 C 382.406982421875 20.06768798828125 364.4733276367188 14.50079345703125 346.2411499023438 10.7698974609375 C 327.531005859375 6.9412841796875 308.2723083496094 5 289 5 M 289 0 C 448.6102294921875 0 578 129.3896789550781 578 289 C 578 448.6102294921875 448.6102294921875 578 289 578 C 129.3896789550781 578 0 448.6102294921875 0 289 C 0 129.3896789550781 129.3896789550781 0 289 0 Z" stroke="none"/>
      </g>
    </g>
    <g id="Path_15829-4" data-name="Path 15829" fill="none">
      <path d="M 289 575.5 C 269.5596923828125 575.5 250.1323852539062 573.5416259765625 231.2576141357422 569.6793212890625 C 212.8638458251953 565.9154052734375 194.7710723876953 560.299072265625 177.4819946289062 552.9864501953125 C 160.5063018798828 545.8063354492188 144.1329193115234 536.9190673828125 128.8168487548828 526.57177734375 C 113.6456146240234 516.3223266601562 99.37923431396484 504.5513916015625 86.41392517089844 491.5860900878906 C 73.44853973388672 478.6207580566406 61.67769241333008 464.3543090820312 51.42823028564453 449.1830749511719 C 41.08084487915039 433.8670043945312 32.19369125366211 417.4936828613281 25.0135383605957 400.5179138183594 C 17.70092391967773 383.2288513183594 12.08461570739746 365.1361389160156 8.32069206237793 346.7423706054688 C 4.45838451385498 327.8676147460938 2.5 308.4403076171875 2.5 289 C 2.5 269.5596923828125 4.45838451385498 250.1323852539062 8.32069206237793 231.2576141357422 C 12.08461570739746 212.8638458251953 17.70092391967773 194.7710723876953 25.0135383605957 177.4819946289062 C 32.19369125366211 160.5063018798828 41.08084487915039 144.1329193115234 51.42823028564453 128.8168487548828 C 61.67769241333008 113.6456146240234 73.44853973388672 99.37923431396484 86.41392517089844 86.41392517089844 C 99.37923431396484 73.44853973388672 113.6456146240234 61.67769241333008 128.8168487548828 51.42823028564453 C 144.1329193115234 41.08084487915039 160.5063018798828 32.19369125366211 177.4819946289062 25.0135383605957 C 194.7710723876953 17.70092391967773 212.8638458251953 12.08461570739746 231.2576141357422 8.32069206237793 C 250.1323852539062 4.45838451385498 269.5596923828125 2.5 289 2.5 C 308.4403076171875 2.5 327.8676147460938 4.45838451385498 346.7423706054688 8.32069206237793 C 365.1361389160156 12.08461570739746 383.2288513183594 17.70092391967773 400.5179138183594 25.0135383605957 C 417.4936828613281 32.19369125366211 433.8670043945312 41.08084487915039 449.1830749511719 51.42823028564453 C 464.3543090820312 61.67769241333008 478.6207580566406 73.44853973388672 491.5860900878906 86.41392517089844 C 504.5513916015625 99.37923431396484 516.3223266601562 113.6456146240234 526.57177734375 128.8168487548828 C 536.9190673828125 144.1329193115234 545.8063354492188 160.5063018798828 552.9864501953125 177.4819946289062 C 560.299072265625 194.7710723876953 565.9154052734375 212.8638458251953 569.6793212890625 231.2576141357422 C 573.5416259765625 250.1323852539062 575.5 269.5596923828125 575.5 289 C 575.5 308.4403076171875 573.5416259765625 327.8676147460938 569.6793212890625 346.7423706054688 C 565.9154052734375 365.1361389160156 560.299072265625 383.2288513183594 552.9864501953125 400.5179138183594 C 545.8063354492188 417.4936828613281 536.9190673828125 433.8670043945312 526.57177734375 449.1830749511719 C 516.3223266601562 464.3543090820312 504.5513916015625 478.6207580566406 491.5860900878906 491.5860900878906 C 478.6207580566406 504.5513916015625 464.3543090820312 516.3223266601562 449.1830749511719 526.57177734375 C 433.8670043945312 536.9190673828125 417.4936828613281 545.8063354492188 400.5179138183594 552.9864501953125 C 383.2288513183594 560.299072265625 365.1361389160156 565.9154052734375 346.7423706054688 569.6793212890625 C 327.8676147460938 573.5416259765625 308.4403076171875 575.5 289 575.5 Z" stroke="none"/>
      <path d="M 289 5 C 269.7276916503906 5 250.468994140625 6.9412841796875 231.7587585449219 10.7698974609375 C 213.5267028808594 14.50079345703125 195.5929870605469 20.06768798828125 178.4559326171875 27.31610107421875 C 161.6288452148438 34.43328857421875 145.398681640625 43.2427978515625 130.2163696289062 53.499755859375 C 115.177001953125 63.66015625 101.0344543457031 75.328857421875 88.18170166015625 88.18170166015625 C 75.328857421875 101.0344543457031 63.66015625 115.177001953125 53.499755859375 130.2163696289062 C 43.2427978515625 145.398681640625 34.43328857421875 161.6288452148438 27.31610107421875 178.4559326171875 C 20.06768798828125 195.5929870605469 14.50079345703125 213.5267028808594 10.7698974609375 231.7587585449219 C 6.9412841796875 250.468994140625 5 269.7276916503906 5 289 C 5 308.2723083496094 6.9412841796875 327.531005859375 10.7698974609375 346.2411499023438 C 14.50079345703125 364.4733276367188 20.06768798828125 382.406982421875 27.31610107421875 399.5440673828125 C 34.43328857421875 416.3711547851562 43.2427978515625 432.6012268066406 53.499755859375 447.7836303710938 C 63.66015625 462.8229370117188 75.328857421875 476.9654541015625 88.18170166015625 489.8182983398438 C 101.0344543457031 502.671142578125 115.177001953125 514.33984375 130.2163696289062 524.500244140625 C 145.398681640625 534.7571411132812 161.6288452148438 543.5667114257812 178.4559326171875 550.6838989257812 C 195.5929870605469 557.9323120117188 213.5267028808594 563.4992065429688 231.7587585449219 567.2301025390625 C 250.468994140625 571.0587158203125 269.7276916503906 573 289 573 C 308.2723083496094 573 327.531005859375 571.0587158203125 346.2411499023438 567.2301025390625 C 364.4733276367188 563.4992065429688 382.406982421875 557.9323120117188 399.5440673828125 550.6838989257812 C 416.3711547851562 543.5667114257812 432.6012268066406 534.7571411132812 447.7836303710938 524.500244140625 C 462.8229370117188 514.33984375 476.9654541015625 502.671142578125 489.8182983398438 489.8182983398438 C 502.671142578125 476.9654541015625 514.33984375 462.8229370117188 524.500244140625 447.7836303710938 C 534.7571411132812 432.6012268066406 543.5667114257812 416.3711547851562 550.6838989257812 399.5440673828125 C 557.9323120117188 382.406982421875 563.4992065429688 364.4733276367188 567.2301025390625 346.2411499023438 C 571.0587158203125 327.531005859375 573 308.2723083496094 573 289 C 573 269.7276916503906 571.0587158203125 250.468994140625 567.2301025390625 231.7587585449219 C 563.4992065429688 213.5267028808594 557.9323120117188 195.5929870605469 550.6838989257812 178.4559326171875 C 543.5667114257812 161.6288452148438 534.7571411132812 145.398681640625 524.500244140625 130.2163696289062 C 514.33984375 115.177001953125 502.671142578125 101.0344543457031 489.8182983398438 88.18170166015625 C 476.9654541015625 75.328857421875 462.8229370117188 63.66015625 447.7836303710938 53.499755859375 C 432.6012268066406 43.2427978515625 416.3711547851562 34.43328857421875 399.5440673828125 27.31610107421875 C 382.406982421875 20.06768798828125 364.4733276367188 14.50079345703125 346.2411499023438 10.7698974609375 C 327.531005859375 6.9412841796875 308.2723083496094 5 289 5 M 289 0 C 448.6102294921875 0 578 129.3896789550781 578 289 C 578 448.6102294921875 448.6102294921875 578 289 578 C 129.3896789550781 578 0 448.6102294921875 0 289 C 0 129.3896789550781 129.3896789550781 0 289 0 Z" stroke="none" fill="#a861df"/>
    </g>
  </g>
  <path id="Path_15830" data-name="Path 15830" d="M266.708,0c147.3,0,266.708,119.409,266.708,266.708S414.007,533.417,266.708,533.417,0,414.007,0,266.708,119.409,0,266.708,0Z" transform="translate(22.292 22.292)" fill="#501784"/>
  <path id="Path_15831" data-name="Path 15831" d="M263.365,0C408.817,0,526.729,117.912,526.729,263.365S408.817,526.729,263.365,526.729,0,408.817,0,263.365,117.912,0,263.365,0Z" transform="translate(26.75 26.75)" fill="#a560e3"/>
  <g id="Group_12091" data-name="Group 12091" transform="translate(24.735 25)">
    <path id="Path_11199" data-name="Path 11199" d="M235.565,257.846,57.392,72.548C106.712,24.716,167,.251,235.565.251Z" transform="translate(29.613 7.453)" fill="#b27ce2"/>
    <path id="Path_11200" data-name="Path 11200" d="M235.565,257.846,57.392,72.548C106.712,24.716,167,.251,235.565.251Z" transform="translate(29.613 7.453)" fill="none"/>
    <path id="Path_11201" data-name="Path 11201" d="M256.721,238.05.388,229.06C2.782,160.245,29.23,100.583,78.548,52.752Z" transform="translate(8.848 26.883)" fill="#7a37b8"/>
    <path id="Path_11202" data-name="Path 11202" d="M256.721,238.05.388,229.06C2.782,160.245,29.23,100.583,78.548,52.752Z" transform="translate(8.848 26.883)" fill="none"/>
    <path id="Path_11203" data-name="Path 11203" d="M256.773,189.774,63.2,358.772C18.218,306.8-1.953,249.6.439,180.785Z" transform="translate(8.796 74.376)" fill="#330f54"/>
    <path id="Path_11204" data-name="Path 11204" d="M256.773,189.774,63.2,358.772C18.218,306.8-1.953,249.6.439,180.785Z" transform="translate(8.796 74.376)" fill="none"/>
    <path id="Path_11205" data-name="Path 11205" d="M239.734,187.313,217.379,443.928c-68.3-6-126.24-35.651-171.22-87.618Z" transform="translate(25.835 76.405)" fill="#b27ce2"/>
    <path id="Path_11206" data-name="Path 11206" d="M239.734,187.313,217.379,443.928c-68.3-6-126.24-35.651-171.22-87.618Z" transform="translate(25.835 76.405)" fill="none"/>
    <path id="Path_11207" data-name="Path 11207" d="M193.388,187.313,354.8,387.5c-53.281,43.333-115.468,62.427-183.768,56.426Z" transform="translate(71.074 76.405)" fill="#a560e3"/>
    <path id="Path_11208" data-name="Path 11208" d="M193.388,187.313,354.8,387.5c-53.281,43.333-115.468,62.427-183.768,56.426Z" transform="translate(71.074 76.405)" fill="none"/>
    <path id="Path_11209" data-name="Path 11209" d="M187.337,187.313l253.992,35.85c-9.542,68.186-39.3,121.006-92.579,164.339Z" transform="translate(76.651 76.405)" fill="#e0c8f5"/>
    <path id="Path_11210" data-name="Path 11210" d="M187.337,187.313l253.992,35.85c-9.542,68.186-39.3,121.006-92.579,164.339Z" transform="translate(76.651 76.405)" fill="none"/>
    <path id="Path_11211" data-name="Path 11211" d="M187.337,228.771,394.841,77.36c40.3,55.707,56.03,119.075,46.488,187.262Z" transform="translate(76.651 36.004)" fill="#501784"/>
    <path id="Path_11212" data-name="Path 11212" d="M187.337,228.771,394.841,77.36c40.3,55.707,56.03,119.075,46.488,187.262Z" transform="translate(76.651 36.004)" fill="none"/>
    <path id="Path_11213" data-name="Path 11213" d="M187.337,256.774,231.876,3.092c67.519,11.957,122.666,46.565,162.965,102.271Z" transform="translate(76.651 8.524)" fill="#a560e3"/>
    <path id="Path_11214" data-name="Path 11214" d="M187.337,256.774,231.876,3.092c67.519,11.957,122.666,46.565,162.965,102.271Z" transform="translate(76.651 8.524)" fill="none"/>
    <path id="Path_11215" data-name="Path 11215" d="M187.337,257.846V.251a222.707,222.707,0,0,1,44.539,3.912Z" transform="translate(77.369 7.453)" fill="#fdfcfe"/>
    <path id="Path_11216" data-name="Path 11216" d="M187.337,257.846V.251a222.707,222.707,0,0,1,44.539,3.912Z" transform="translate(77.369 7.453)" fill="none"/>
    <rect id="Rectangle_7012" data-name="Rectangle 7012" width="529.419" height="529.419" transform="translate(0 0)" fill="none"/>
    <text id="JACKPOT" transform="matrix(0.087, -0.996, 0.996, 0.087, 283.38, 95.634)" fill="#fa5158" font-size="14" font-family="Rubik-Bold, Rubik" font-weight="700" letter-spacing="0.5em"><tspan x="-54.096" y="0">JACKPOT</tspan></text>
  </g>
  <g id="Group_12092" data-name="Group 12092" transform="translate(188.166 72)">
    <g transform="matrix(1, 0, 0, 1, -188.17, -72)" filter="url(#_3)">
      <text id="_3-2" data-name="+3" transform="translate(218.93 114)" fill="#fdfcfe" font-size="48" font-family="Montserrat-Bold, Montserrat" font-weight="700" letter-spacing="0em"><tspan x="-28.11" y="0">+3</tspan></text>
    </g>
    <g transform="matrix(1, 0, 0, 1, -188.17, -72)" filter="url(#MPs)">
      <text id="MPs-9" data-name="MPs" transform="translate(218.93 148)" fill="#fdfcfe" font-size="24" font-family="Rubik-Regular, Rubik" letter-spacing="0em"><tspan x="-23.356" y="0">MPs</tspan></text>
    </g>
  </g>
  <g id="Group_15046" data-name="Group 15046" transform="translate(84.224 183)">
    <g transform="matrix(1, 0, 0, 1, -84.22, -183)" filter="url(#_9)">
      <text id="_9-2" data-name="+9" transform="translate(114.98 225)" fill="#fdfcfe" font-size="48" font-family="Montserrat-Bold, Montserrat" font-weight="700" letter-spacing="0em"><tspan x="-29.67" y="0">+9</tspan></text>
    </g>
    <g transform="matrix(1, 0, 0, 1, -84.22, -183)" filter="url(#MPs-2)">
      <text id="MPs-10" data-name="MPs" transform="translate(114.98 259)" fill="#fdfcfe" font-size="24" font-family="Rubik-Regular, Rubik" letter-spacing="0em"><tspan x="-23.356" y="0">MPs</tspan></text>
    </g>
  </g>
  <g id="Group_15040" data-name="Group 15040" transform="translate(351.874 91)">
    <g transform="matrix(1, 0, 0, 1, -351.87, -91)" filter="url(#_1)">
      <text id="_1-2" data-name="+1" transform="translate(382.63 133)" fill="#fdfcfe" font-size="48" font-family="Montserrat-Bold, Montserrat" font-weight="700" letter-spacing="0em"><tspan x="-23.286" y="0">+1</tspan></text>
    </g>
    <g transform="matrix(1, 0, 0, 1, -351.87, -91)" filter="url(#MPs-3)">
      <text id="MPs-11" data-name="MPs" transform="translate(382.63 167)" fill="#fdfcfe" font-size="24" font-family="Rubik-Regular, Rubik" letter-spacing="0em"><tspan x="-23.356" y="0">MPs</tspan></text>
    </g>
  </g>
  <g id="Group_15041" data-name="Group 15041" transform="translate(434.834 207)">
    <g transform="matrix(1, 0, 0, 1, -434.83, -207)" filter="url(#_15)">
      <text id="_15-2" data-name="+15" transform="translate(465.59 249)" fill="#fdfcfe" font-size="48" font-family="Montserrat-Bold, Montserrat" font-weight="700" letter-spacing="0em"><tspan x="-37.572" y="0">+15</tspan></text>
    </g>
    <g transform="matrix(1, 0, 0, 1, -434.83, -207)" filter="url(#MPs-4)">
      <text id="MPs-12" data-name="MPs" transform="translate(465.59 283)" fill="#fdfcfe" font-size="24" font-family="Rubik-Regular, Rubik" letter-spacing="0em"><tspan x="-23.356" y="0">MPs</tspan></text>
    </g>
  </g>
  <g id="Group_15042" data-name="Group 15042" transform="translate(411.834 343.634)">
    <g transform="matrix(1, 0, 0, 1, -411.83, -343.63)" filter="url(#_5)">
      <text id="_5-2" data-name="+5" transform="translate(442.59 385.63)" fill="#fdfcfe" font-size="48" font-family="Montserrat-Bold, Montserrat" font-weight="700" letter-spacing="0em"><tspan x="-28.662" y="0">+5</tspan></text>
    </g>
    <g transform="matrix(1, 0, 0, 1, -411.83, -343.63)" filter="url(#MPs-5)">
      <text id="MPs-13" data-name="MPs" transform="translate(442.59 419.63)" fill="#fdfcfe" font-size="24" font-family="Rubik-Regular, Rubik" letter-spacing="0em"><tspan x="-23.356" y="0">MPs</tspan></text>
    </g>
  </g>
  <g id="Group_15043" data-name="Group 15043" transform="translate(307.834 425.634)">
    <g transform="matrix(1, 0, 0, 1, -307.83, -425.63)" filter="url(#_13)">
      <text id="_13-2" data-name="+13" transform="translate(338.59 467.63)" fill="#fdfcfe" font-size="48" font-family="Montserrat-Bold, Montserrat" font-weight="700" letter-spacing="0em"><tspan x="-37.5" y="0">+13</tspan></text>
    </g>
    <g transform="matrix(1, 0, 0, 1, -307.83, -425.63)" filter="url(#MPs-6)">
      <text id="MPs-14" data-name="MPs" transform="translate(338.59 501.63)" fill="#fdfcfe" font-size="24" font-family="Rubik-Regular, Rubik" letter-spacing="0em"><tspan x="-23.356" y="0">MPs</tspan></text>
    </g>
  </g>
  <g id="Group_15044" data-name="Group 15044" transform="translate(174.834 411.634)">
    <g transform="matrix(1, 0, 0, 1, -174.83, -411.63)" filter="url(#_7)">
      <text id="_7-2" data-name="+7" transform="translate(205.59 453.63)" fill="#fdfcfe" font-size="48" font-family="Montserrat-Bold, Montserrat" font-weight="700" letter-spacing="0em"><tspan x="-29.022" y="0">+7</tspan></text>
    </g>
    <g transform="matrix(1, 0, 0, 1, -174.83, -411.63)" filter="url(#MPs-7)">
      <text id="MPs-15" data-name="MPs" transform="translate(205.59 487.63)" fill="#fdfcfe" font-size="24" font-family="Rubik-Regular, Rubik" letter-spacing="0em"><tspan x="-23.356" y="0">MPs</tspan></text>
    </g>
  </g>
  <g id="Group_15045" data-name="Group 15045" transform="translate(84.975 307.213)">
    <g transform="matrix(1, 0, 0, 1, -84.98, -307.21)" filter="url(#_11)">
      <text id="_11-2" data-name="+11" transform="translate(115.74 349.21)" fill="#fdfcfe" font-size="48" font-family="Montserrat-Bold, Montserrat" font-weight="700" letter-spacing="0em"><tspan x="-32.7" y="0">+11</tspan></text>
    </g>
    <g transform="matrix(1, 0, 0, 1, -84.98, -307.21)" filter="url(#MPs-8)">
      <text id="MPs-16" data-name="MPs" transform="translate(115.74 383.21)" fill="#fdfcfe" font-size="24" font-family="Rubik-Regular, Rubik" letter-spacing="0em"><tspan x="-23.356" y="0">MPs</tspan></text>
    </g>
  </g>
  <circle id="Ellipse_16"  data-name="Ellipse 16" cx="101" cy="101" r="101" transform="translate(187.945 187.213)" fill="#52525b"/>
  <g id="Group_12093" data-name="Group 12093" transform="translate(190.926 190.926)">
    <g data-type="innerShadowGroup">
      <g transform="matrix(1, 0, 0, 1, -190.93, -190.93)" filter="url(#Path_15470)">
        <g id="Path_15470-3" data-name="Path 15470" transform="translate(190.93 190.93)" fill="#a560e3">
          <path d="M 95.85370635986328 194.2074127197266 C 89.18218231201172 194.2074127197266 82.51407623291016 193.5351257324219 76.03465270996094 192.2092590332031 C 69.7186279296875 190.9168090820312 63.5059700012207 188.98828125 57.56923294067383 186.4772644042969 C 51.74083709716797 184.0120544433594 46.11954879760742 180.9609375 40.86146926879883 177.4086608886719 C 35.65402221679688 173.8905792236328 30.75723266601562 169.8503570556641 26.30712699890137 165.4002838134766 C 21.85704803466797 160.9501800537109 17.81683731079102 156.0533905029297 14.29875946044922 150.845947265625 C 10.74646949768066 145.5878601074219 7.695364475250244 139.9665679931641 5.230153560638428 134.13818359375 C 2.719127416610718 128.2014465332031 0.7906010746955872 121.9887847900391 -0.5018462538719177 115.6727600097656 C -1.827714681625366 109.1933364868164 -2.500004053115845 102.5252304077148 -2.500004053115845 95.85370635986328 C -2.500004053115845 89.18218231201172 -1.827714681625366 82.51407623291016 -0.5018462538719177 76.03465270996094 C 0.7906010746955872 69.7186279296875 2.719127416610718 63.5059700012207 5.230153560638428 57.56923294067383 C 7.695364475250244 51.74083709716797 10.74646949768066 46.11954879760742 14.29875946044922 40.86146926879883 C 17.81683731079102 35.65402221679688 21.85704803466797 30.75723266601562 26.30712699890137 26.30712699890137 C 30.75723266601562 21.85704803466797 35.65402221679688 17.81683731079102 40.86146926879883 14.29875946044922 C 46.11954879760742 10.74646949768066 51.74083709716797 7.695364475250244 57.56923294067383 5.230153560638428 C 63.5059700012207 2.719127416610718 69.7186279296875 0.7906010746955872 76.03465270996094 -0.5018462538719177 C 82.51407623291016 -1.827714681625366 89.18218231201172 -2.500004053115845 95.85370635986328 -2.500004053115845 C 102.5252304077148 -2.500004053115845 109.1933364868164 -1.827714681625366 115.6727600097656 -0.5018462538719177 C 121.9887847900391 0.7906010746955872 128.2014465332031 2.719127416610718 134.13818359375 5.230153560638428 C 139.9665679931641 7.695364475250244 145.5878601074219 10.74646949768066 150.845947265625 14.29875946044922 C 156.0533905029297 17.81683731079102 160.9501800537109 21.85704803466797 165.4002838134766 26.30712699890137 C 169.8503570556641 30.75723266601562 173.8905792236328 35.65402221679688 177.4086608886719 40.86146926879883 C 180.9609375 46.11954879760742 184.0120544433594 51.74083709716797 186.4772644042969 57.56923294067383 C 188.98828125 63.5059700012207 190.9168090820312 69.7186279296875 192.2092590332031 76.03465270996094 C 193.5351257324219 82.51407623291016 194.2074127197266 89.18218231201172 194.2074127197266 95.85370635986328 C 194.2074127197266 102.5252304077148 193.5351257324219 109.1933364868164 192.2092590332031 115.6727600097656 C 190.9168090820312 121.9887847900391 188.98828125 128.2014465332031 186.4772644042969 134.13818359375 C 184.0120544433594 139.9665679931641 180.9609375 145.5878601074219 177.4086608886719 150.845947265625 C 173.8905792236328 156.0533905029297 169.8503570556641 160.9501800537109 165.4002838134766 165.4002838134766 C 160.9501800537109 169.8503570556641 156.0533905029297 173.8905792236328 150.845947265625 177.4086608886719 C 145.5878601074219 180.9609375 139.9665679931641 184.0120544433594 134.13818359375 186.4772644042969 C 128.2014465332031 188.98828125 121.9887847900391 190.9168090820312 115.6727600097656 192.2092590332031 C 109.1933364868164 193.5351257324219 102.5252304077148 194.2074127197266 95.85370635986328 194.2074127197266 Z" stroke="none"/>
          <path d="M 95.85370635986328 0 C 42.91517639160156 0 0 42.91517639160156 0 95.85370635986328 C 0 148.792236328125 42.91517639160156 191.7074127197266 95.85370635986328 191.7074127197266 C 148.792236328125 191.7074127197266 191.7074127197266 148.792236328125 191.7074127197266 95.85370635986328 C 191.7074127197266 42.91517639160156 148.792236328125 0 95.85370635986328 0 M 95.85370635986328 -5 C 102.6932373046875 -5 109.5299453735352 -4.310653686523438 116.173942565918 -2.951080322265625 C 122.6516494750977 -1.625564575195312 129.0233459472656 0.352325439453125 135.112060546875 2.927642822265625 C 141.089111328125 5.455734252929688 146.8536224365234 8.584564208984375 152.2454376220703 12.22720336914062 C 157.5847625732422 15.8343505859375 162.6054382324219 19.97676086425781 167.1680297851562 24.53938293457031 C 171.7306518554688 29.10197448730469 175.8730621337891 34.12265014648438 179.4802093505859 39.46197509765625 C 183.1228485107422 44.85379028320312 186.2516784667969 50.61830139160156 188.7797698974609 56.59535217285156 C 191.3550872802734 62.68406677246094 193.3329772949219 69.05576324462891 194.6584930419922 75.53347015380859 C 196.01806640625 82.17746734619141 196.7074127197266 89.01417541503906 196.7074127197266 95.85370635986328 C 196.7074127197266 102.6932373046875 196.01806640625 109.5299453735352 194.6584930419922 116.173942565918 C 193.3329772949219 122.6516494750977 191.3550872802734 129.0233459472656 188.7797698974609 135.112060546875 C 186.2516784667969 141.089111328125 183.1228485107422 146.8536224365234 179.4802093505859 152.2454376220703 C 175.8730621337891 157.5847625732422 171.7306518554688 162.6054382324219 167.1680297851562 167.1680297851562 C 162.6054382324219 171.7306518554688 157.5847625732422 175.8730621337891 152.2454376220703 179.4802093505859 C 146.8536224365234 183.1228485107422 141.089111328125 186.2516784667969 135.112060546875 188.7797698974609 C 129.0233459472656 191.3550872802734 122.6516494750977 193.3329772949219 116.173942565918 194.6584930419922 C 109.5299453735352 196.01806640625 102.6932373046875 196.7074127197266 95.85370635986328 196.7074127197266 C 89.01417541503906 196.7074127197266 82.17746734619141 196.01806640625 75.53347015380859 194.6584930419922 C 69.05576324462891 193.3329772949219 62.68406677246094 191.3550872802734 56.59535217285156 188.7797698974609 C 50.61830139160156 186.2516784667969 44.85379028320312 183.1228485107422 39.46197509765625 179.4802093505859 C 34.12265014648438 175.8730621337891 29.10197448730469 171.7306518554688 24.53938293457031 167.1680297851562 C 19.97676086425781 162.6054382324219 15.8343505859375 157.5847625732422 12.22720336914062 152.2454376220703 C 8.584564208984375 146.8536224365234 5.455734252929688 141.089111328125 2.927642822265625 135.112060546875 C 0.352325439453125 129.0233459472656 -1.625564575195312 122.6516494750977 -2.951080322265625 116.173942565918 C -4.310653686523438 109.5299453735352 -5 102.6932373046875 -5 95.85370635986328 C -5 89.01417541503906 -4.310653686523438 82.17746734619141 -2.951080322265625 75.53347015380859 C -1.625564575195312 69.05576324462891 0.352325439453125 62.68406677246094 2.927642822265625 56.59535217285156 C 5.455734252929688 50.61830139160156 8.584564208984375 44.85379028320312 12.22720336914062 39.46197509765625 C 15.8343505859375 34.12265014648438 19.97676086425781 29.10197448730469 24.53938293457031 24.53938293457031 C 29.10197448730469 19.97676086425781 34.12265014648438 15.8343505859375 39.46197509765625 12.22720336914062 C 44.85379028320312 8.584564208984375 50.61830139160156 5.455734252929688 56.59535217285156 2.927642822265625 C 62.68406677246094 0.352325439453125 69.05576324462891 -1.625564575195312 75.53347015380859 -2.951080322265625 C 82.17746734619141 -4.310653686523438 89.01417541503906 -5 95.85370635986328 -5 Z" stroke="none" fill="#a560e3"/>
        </g>
      </g>
      <g id="Path_15470-4" data-name="Path 15470" fill="#a560e3">
        <path d="M 95.85370635986328 194.2074127197266 C 89.18218231201172 194.2074127197266 82.51407623291016 193.5351257324219 76.03465270996094 192.2092590332031 C 69.7186279296875 190.9168090820312 63.5059700012207 188.98828125 57.56923294067383 186.4772644042969 C 51.74083709716797 184.0120544433594 46.11954879760742 180.9609375 40.86146926879883 177.4086608886719 C 35.65402221679688 173.8905792236328 30.75723266601562 169.8503570556641 26.30712699890137 165.4002838134766 C 21.85704803466797 160.9501800537109 17.81683731079102 156.0533905029297 14.29875946044922 150.845947265625 C 10.74646949768066 145.5878601074219 7.695364475250244 139.9665679931641 5.230153560638428 134.13818359375 C 2.719127416610718 128.2014465332031 0.7906010746955872 121.9887847900391 -0.5018462538719177 115.6727600097656 C -1.827714681625366 109.1933364868164 -2.500004053115845 102.5252304077148 -2.500004053115845 95.85370635986328 C -2.500004053115845 89.18218231201172 -1.827714681625366 82.51407623291016 -0.5018462538719177 76.03465270996094 C 0.7906010746955872 69.7186279296875 2.719127416610718 63.5059700012207 5.230153560638428 57.56923294067383 C 7.695364475250244 51.74083709716797 10.74646949768066 46.11954879760742 14.29875946044922 40.86146926879883 C 17.81683731079102 35.65402221679688 21.85704803466797 30.75723266601562 26.30712699890137 26.30712699890137 C 30.75723266601562 21.85704803466797 35.65402221679688 17.81683731079102 40.86146926879883 14.29875946044922 C 46.11954879760742 10.74646949768066 51.74083709716797 7.695364475250244 57.56923294067383 5.230153560638428 C 63.5059700012207 2.719127416610718 69.7186279296875 0.7906010746955872 76.03465270996094 -0.5018462538719177 C 82.51407623291016 -1.827714681625366 89.18218231201172 -2.500004053115845 95.85370635986328 -2.500004053115845 C 102.5252304077148 -2.500004053115845 109.1933364868164 -1.827714681625366 115.6727600097656 -0.5018462538719177 C 121.9887847900391 0.7906010746955872 128.2014465332031 2.719127416610718 134.13818359375 5.230153560638428 C 139.9665679931641 7.695364475250244 145.5878601074219 10.74646949768066 150.845947265625 14.29875946044922 C 156.0533905029297 17.81683731079102 160.9501800537109 21.85704803466797 165.4002838134766 26.30712699890137 C 169.8503570556641 30.75723266601562 173.8905792236328 35.65402221679688 177.4086608886719 40.86146926879883 C 180.9609375 46.11954879760742 184.0120544433594 51.74083709716797 186.4772644042969 57.56923294067383 C 188.98828125 63.5059700012207 190.9168090820312 69.7186279296875 192.2092590332031 76.03465270996094 C 193.5351257324219 82.51407623291016 194.2074127197266 89.18218231201172 194.2074127197266 95.85370635986328 C 194.2074127197266 102.5252304077148 193.5351257324219 109.1933364868164 192.2092590332031 115.6727600097656 C 190.9168090820312 121.9887847900391 188.98828125 128.2014465332031 186.4772644042969 134.13818359375 C 184.0120544433594 139.9665679931641 180.9609375 145.5878601074219 177.4086608886719 150.845947265625 C 173.8905792236328 156.0533905029297 169.8503570556641 160.9501800537109 165.4002838134766 165.4002838134766 C 160.9501800537109 169.8503570556641 156.0533905029297 173.8905792236328 150.845947265625 177.4086608886719 C 145.5878601074219 180.9609375 139.9665679931641 184.0120544433594 134.13818359375 186.4772644042969 C 128.2014465332031 188.98828125 121.9887847900391 190.9168090820312 115.6727600097656 192.2092590332031 C 109.1933364868164 193.5351257324219 102.5252304077148 194.2074127197266 95.85370635986328 194.2074127197266 Z" stroke="none"/>
        <path d="M 95.85370635986328 0 C 42.91517639160156 0 0 42.91517639160156 0 95.85370635986328 C 0 148.792236328125 42.91517639160156 191.7074127197266 95.85370635986328 191.7074127197266 C 148.792236328125 191.7074127197266 191.7074127197266 148.792236328125 191.7074127197266 95.85370635986328 C 191.7074127197266 42.91517639160156 148.792236328125 0 95.85370635986328 0 M 95.85370635986328 -5 C 102.6932373046875 -5 109.5299453735352 -4.310653686523438 116.173942565918 -2.951080322265625 C 122.6516494750977 -1.625564575195312 129.0233459472656 0.352325439453125 135.112060546875 2.927642822265625 C 141.089111328125 5.455734252929688 146.8536224365234 8.584564208984375 152.2454376220703 12.22720336914062 C 157.5847625732422 15.8343505859375 162.6054382324219 19.97676086425781 167.1680297851562 24.53938293457031 C 171.7306518554688 29.10197448730469 175.8730621337891 34.12265014648438 179.4802093505859 39.46197509765625 C 183.1228485107422 44.85379028320312 186.2516784667969 50.61830139160156 188.7797698974609 56.59535217285156 C 191.3550872802734 62.68406677246094 193.3329772949219 69.05576324462891 194.6584930419922 75.53347015380859 C 196.01806640625 82.17746734619141 196.7074127197266 89.01417541503906 196.7074127197266 95.85370635986328 C 196.7074127197266 102.6932373046875 196.01806640625 109.5299453735352 194.6584930419922 116.173942565918 C 193.3329772949219 122.6516494750977 191.3550872802734 129.0233459472656 188.7797698974609 135.112060546875 C 186.2516784667969 141.089111328125 183.1228485107422 146.8536224365234 179.4802093505859 152.2454376220703 C 175.8730621337891 157.5847625732422 171.7306518554688 162.6054382324219 167.1680297851562 167.1680297851562 C 162.6054382324219 171.7306518554688 157.5847625732422 175.8730621337891 152.2454376220703 179.4802093505859 C 146.8536224365234 183.1228485107422 141.089111328125 186.2516784667969 135.112060546875 188.7797698974609 C 129.0233459472656 191.3550872802734 122.6516494750977 193.3329772949219 116.173942565918 194.6584930419922 C 109.5299453735352 196.01806640625 102.6932373046875 196.7074127197266 95.85370635986328 196.7074127197266 C 89.01417541503906 196.7074127197266 82.17746734619141 196.01806640625 75.53347015380859 194.6584930419922 C 69.05576324462891 193.3329772949219 62.68406677246094 191.3550872802734 56.59535217285156 188.7797698974609 C 50.61830139160156 186.2516784667969 44.85379028320312 183.1228485107422 39.46197509765625 179.4802093505859 C 34.12265014648438 175.8730621337891 29.10197448730469 171.7306518554688 24.53938293457031 167.1680297851562 C 19.97676086425781 162.6054382324219 15.8343505859375 157.5847625732422 12.22720336914062 152.2454376220703 C 8.584564208984375 146.8536224365234 5.455734252929688 141.089111328125 2.927642822265625 135.112060546875 C 0.352325439453125 129.0233459472656 -1.625564575195312 122.6516494750977 -2.951080322265625 116.173942565918 C -4.310653686523438 109.5299453735352 -5 102.6932373046875 -5 95.85370635986328 C -5 89.01417541503906 -4.310653686523438 82.17746734619141 -2.951080322265625 75.53347015380859 C -1.625564575195312 69.05576324462891 0.352325439453125 62.68406677246094 2.927642822265625 56.59535217285156 C 5.455734252929688 50.61830139160156 8.584564208984375 44.85379028320312 12.22720336914062 39.46197509765625 C 15.8343505859375 34.12265014648438 19.97676086425781 29.10197448730469 24.53938293457031 24.53938293457031 C 29.10197448730469 19.97676086425781 34.12265014648438 15.8343505859375 39.46197509765625 12.22720336914062 C 44.85379028320312 8.584564208984375 50.61830139160156 5.455734252929688 56.59535217285156 2.927642822265625 C 62.68406677246094 0.352325439453125 69.05576324462891 -1.625564575195312 75.53347015380859 -2.951080322265625 C 82.17746734619141 -4.310653686523438 89.01417541503906 -5 95.85370635986328 -5 Z" stroke="none"/>
      </g>
      <g transform="matrix(1, 0, 0, 1, -190.93, -190.93)" filter="url(#Path_15470-2)">
        <g id="Path_15470-5" data-name="Path 15470" transform="translate(190.93 190.93)" fill="#fff">
          <path d="M 95.85370635986328 194.2074127197266 C 89.18218231201172 194.2074127197266 82.51407623291016 193.5351257324219 76.03465270996094 192.2092590332031 C 69.7186279296875 190.9168090820312 63.5059700012207 188.98828125 57.56923294067383 186.4772644042969 C 51.74083709716797 184.0120544433594 46.11954879760742 180.9609375 40.86146926879883 177.4086608886719 C 35.65402221679688 173.8905792236328 30.75723266601562 169.8503570556641 26.30712699890137 165.4002838134766 C 21.85704803466797 160.9501800537109 17.81683731079102 156.0533905029297 14.29875946044922 150.845947265625 C 10.74646949768066 145.5878601074219 7.695364475250244 139.9665679931641 5.230153560638428 134.13818359375 C 2.719127416610718 128.2014465332031 0.7906010746955872 121.9887847900391 -0.5018462538719177 115.6727600097656 C -1.827714681625366 109.1933364868164 -2.500004053115845 102.5252304077148 -2.500004053115845 95.85370635986328 C -2.500004053115845 89.18218231201172 -1.827714681625366 82.51407623291016 -0.5018462538719177 76.03465270996094 C 0.7906010746955872 69.7186279296875 2.719127416610718 63.5059700012207 5.230153560638428 57.56923294067383 C 7.695364475250244 51.74083709716797 10.74646949768066 46.11954879760742 14.29875946044922 40.86146926879883 C 17.81683731079102 35.65402221679688 21.85704803466797 30.75723266601562 26.30712699890137 26.30712699890137 C 30.75723266601562 21.85704803466797 35.65402221679688 17.81683731079102 40.86146926879883 14.29875946044922 C 46.11954879760742 10.74646949768066 51.74083709716797 7.695364475250244 57.56923294067383 5.230153560638428 C 63.5059700012207 2.719127416610718 69.7186279296875 0.7906010746955872 76.03465270996094 -0.5018462538719177 C 82.51407623291016 -1.827714681625366 89.18218231201172 -2.500004053115845 95.85370635986328 -2.500004053115845 C 102.5252304077148 -2.500004053115845 109.1933364868164 -1.827714681625366 115.6727600097656 -0.5018462538719177 C 121.9887847900391 0.7906010746955872 128.2014465332031 2.719127416610718 134.13818359375 5.230153560638428 C 139.9665679931641 7.695364475250244 145.5878601074219 10.74646949768066 150.845947265625 14.29875946044922 C 156.0533905029297 17.81683731079102 160.9501800537109 21.85704803466797 165.4002838134766 26.30712699890137 C 169.8503570556641 30.75723266601562 173.8905792236328 35.65402221679688 177.4086608886719 40.86146926879883 C 180.9609375 46.11954879760742 184.0120544433594 51.74083709716797 186.4772644042969 57.56923294067383 C 188.98828125 63.5059700012207 190.9168090820312 69.7186279296875 192.2092590332031 76.03465270996094 C 193.5351257324219 82.51407623291016 194.2074127197266 89.18218231201172 194.2074127197266 95.85370635986328 C 194.2074127197266 102.5252304077148 193.5351257324219 109.1933364868164 192.2092590332031 115.6727600097656 C 190.9168090820312 121.9887847900391 188.98828125 128.2014465332031 186.4772644042969 134.13818359375 C 184.0120544433594 139.9665679931641 180.9609375 145.5878601074219 177.4086608886719 150.845947265625 C 173.8905792236328 156.0533905029297 169.8503570556641 160.9501800537109 165.4002838134766 165.4002838134766 C 160.9501800537109 169.8503570556641 156.0533905029297 173.8905792236328 150.845947265625 177.4086608886719 C 145.5878601074219 180.9609375 139.9665679931641 184.0120544433594 134.13818359375 186.4772644042969 C 128.2014465332031 188.98828125 121.9887847900391 190.9168090820312 115.6727600097656 192.2092590332031 C 109.1933364868164 193.5351257324219 102.5252304077148 194.2074127197266 95.85370635986328 194.2074127197266 Z" stroke="none"/>
          <path d="M 95.85370635986328 0 C 42.91517639160156 0 0 42.91517639160156 0 95.85370635986328 C 0 148.792236328125 42.91517639160156 191.7074127197266 95.85370635986328 191.7074127197266 C 148.792236328125 191.7074127197266 191.7074127197266 148.792236328125 191.7074127197266 95.85370635986328 C 191.7074127197266 42.91517639160156 148.792236328125 0 95.85370635986328 0 M 95.85370635986328 -5 C 102.6932373046875 -5 109.5299453735352 -4.310653686523438 116.173942565918 -2.951080322265625 C 122.6516494750977 -1.625564575195312 129.0233459472656 0.352325439453125 135.112060546875 2.927642822265625 C 141.089111328125 5.455734252929688 146.8536224365234 8.584564208984375 152.2454376220703 12.22720336914062 C 157.5847625732422 15.8343505859375 162.6054382324219 19.97676086425781 167.1680297851562 24.53938293457031 C 171.7306518554688 29.10197448730469 175.8730621337891 34.12265014648438 179.4802093505859 39.46197509765625 C 183.1228485107422 44.85379028320312 186.2516784667969 50.61830139160156 188.7797698974609 56.59535217285156 C 191.3550872802734 62.68406677246094 193.3329772949219 69.05576324462891 194.6584930419922 75.53347015380859 C 196.01806640625 82.17746734619141 196.7074127197266 89.01417541503906 196.7074127197266 95.85370635986328 C 196.7074127197266 102.6932373046875 196.01806640625 109.5299453735352 194.6584930419922 116.173942565918 C 193.3329772949219 122.6516494750977 191.3550872802734 129.0233459472656 188.7797698974609 135.112060546875 C 186.2516784667969 141.089111328125 183.1228485107422 146.8536224365234 179.4802093505859 152.2454376220703 C 175.8730621337891 157.5847625732422 171.7306518554688 162.6054382324219 167.1680297851562 167.1680297851562 C 162.6054382324219 171.7306518554688 157.5847625732422 175.8730621337891 152.2454376220703 179.4802093505859 C 146.8536224365234 183.1228485107422 141.089111328125 186.2516784667969 135.112060546875 188.7797698974609 C 129.0233459472656 191.3550872802734 122.6516494750977 193.3329772949219 116.173942565918 194.6584930419922 C 109.5299453735352 196.01806640625 102.6932373046875 196.7074127197266 95.85370635986328 196.7074127197266 C 89.01417541503906 196.7074127197266 82.17746734619141 196.01806640625 75.53347015380859 194.6584930419922 C 69.05576324462891 193.3329772949219 62.68406677246094 191.3550872802734 56.59535217285156 188.7797698974609 C 50.61830139160156 186.2516784667969 44.85379028320312 183.1228485107422 39.46197509765625 179.4802093505859 C 34.12265014648438 175.8730621337891 29.10197448730469 171.7306518554688 24.53938293457031 167.1680297851562 C 19.97676086425781 162.6054382324219 15.8343505859375 157.5847625732422 12.22720336914062 152.2454376220703 C 8.584564208984375 146.8536224365234 5.455734252929688 141.089111328125 2.927642822265625 135.112060546875 C 0.352325439453125 129.0233459472656 -1.625564575195312 122.6516494750977 -2.951080322265625 116.173942565918 C -4.310653686523438 109.5299453735352 -5 102.6932373046875 -5 95.85370635986328 C -5 89.01417541503906 -4.310653686523438 82.17746734619141 -2.951080322265625 75.53347015380859 C -1.625564575195312 69.05576324462891 0.352325439453125 62.68406677246094 2.927642822265625 56.59535217285156 C 5.455734252929688 50.61830139160156 8.584564208984375 44.85379028320312 12.22720336914062 39.46197509765625 C 15.8343505859375 34.12265014648438 19.97676086425781 29.10197448730469 24.53938293457031 24.53938293457031 C 29.10197448730469 19.97676086425781 34.12265014648438 15.8343505859375 39.46197509765625 12.22720336914062 C 44.85379028320312 8.584564208984375 50.61830139160156 5.455734252929688 56.59535217285156 2.927642822265625 C 62.68406677246094 0.352325439453125 69.05576324462891 -1.625564575195312 75.53347015380859 -2.951080322265625 C 82.17746734619141 -4.310653686523438 89.01417541503906 -5 95.85370635986328 -5 Z" stroke="none"/>
        </g>
      </g>
      <g id="Path_15470-6" data-name="Path 15470" fill="none">
        <path d="M 95.85370635986328 194.2074127197266 C 89.18218231201172 194.2074127197266 82.51407623291016 193.5351257324219 76.03465270996094 192.2092590332031 C 69.7186279296875 190.9168090820312 63.5059700012207 188.98828125 57.56923294067383 186.4772644042969 C 51.74083709716797 184.0120544433594 46.11954879760742 180.9609375 40.86146926879883 177.4086608886719 C 35.65402221679688 173.8905792236328 30.75723266601562 169.8503570556641 26.30712699890137 165.4002838134766 C 21.85704803466797 160.9501800537109 17.81683731079102 156.0533905029297 14.29875946044922 150.845947265625 C 10.74646949768066 145.5878601074219 7.695364475250244 139.9665679931641 5.230153560638428 134.13818359375 C 2.719127416610718 128.2014465332031 0.7906010746955872 121.9887847900391 -0.5018462538719177 115.6727600097656 C -1.827714681625366 109.1933364868164 -2.500004053115845 102.5252304077148 -2.500004053115845 95.85370635986328 C -2.500004053115845 89.18218231201172 -1.827714681625366 82.51407623291016 -0.5018462538719177 76.03465270996094 C 0.7906010746955872 69.7186279296875 2.719127416610718 63.5059700012207 5.230153560638428 57.56923294067383 C 7.695364475250244 51.74083709716797 10.74646949768066 46.11954879760742 14.29875946044922 40.86146926879883 C 17.81683731079102 35.65402221679688 21.85704803466797 30.75723266601562 26.30712699890137 26.30712699890137 C 30.75723266601562 21.85704803466797 35.65402221679688 17.81683731079102 40.86146926879883 14.29875946044922 C 46.11954879760742 10.74646949768066 51.74083709716797 7.695364475250244 57.56923294067383 5.230153560638428 C 63.5059700012207 2.719127416610718 69.7186279296875 0.7906010746955872 76.03465270996094 -0.5018462538719177 C 82.51407623291016 -1.827714681625366 89.18218231201172 -2.500004053115845 95.85370635986328 -2.500004053115845 C 102.5252304077148 -2.500004053115845 109.1933364868164 -1.827714681625366 115.6727600097656 -0.5018462538719177 C 121.9887847900391 0.7906010746955872 128.2014465332031 2.719127416610718 134.13818359375 5.230153560638428 C 139.9665679931641 7.695364475250244 145.5878601074219 10.74646949768066 150.845947265625 14.29875946044922 C 156.0533905029297 17.81683731079102 160.9501800537109 21.85704803466797 165.4002838134766 26.30712699890137 C 169.8503570556641 30.75723266601562 173.8905792236328 35.65402221679688 177.4086608886719 40.86146926879883 C 180.9609375 46.11954879760742 184.0120544433594 51.74083709716797 186.4772644042969 57.56923294067383 C 188.98828125 63.5059700012207 190.9168090820312 69.7186279296875 192.2092590332031 76.03465270996094 C 193.5351257324219 82.51407623291016 194.2074127197266 89.18218231201172 194.2074127197266 95.85370635986328 C 194.2074127197266 102.5252304077148 193.5351257324219 109.1933364868164 192.2092590332031 115.6727600097656 C 190.9168090820312 121.9887847900391 188.98828125 128.2014465332031 186.4772644042969 134.13818359375 C 184.0120544433594 139.9665679931641 180.9609375 145.5878601074219 177.4086608886719 150.845947265625 C 173.8905792236328 156.0533905029297 169.8503570556641 160.9501800537109 165.4002838134766 165.4002838134766 C 160.9501800537109 169.8503570556641 156.0533905029297 173.8905792236328 150.845947265625 177.4086608886719 C 145.5878601074219 180.9609375 139.9665679931641 184.0120544433594 134.13818359375 186.4772644042969 C 128.2014465332031 188.98828125 121.9887847900391 190.9168090820312 115.6727600097656 192.2092590332031 C 109.1933364868164 193.5351257324219 102.5252304077148 194.2074127197266 95.85370635986328 194.2074127197266 Z" stroke="none"/>
        <path d="M 95.85370635986328 0 C 42.91517639160156 0 0 42.91517639160156 0 95.85370635986328 C 0 148.792236328125 42.91517639160156 191.7074127197266 95.85370635986328 191.7074127197266 C 148.792236328125 191.7074127197266 191.7074127197266 148.792236328125 191.7074127197266 95.85370635986328 C 191.7074127197266 42.91517639160156 148.792236328125 0 95.85370635986328 0 M 95.85370635986328 -5 C 102.6932373046875 -5 109.5299453735352 -4.310653686523438 116.173942565918 -2.951080322265625 C 122.6516494750977 -1.625564575195312 129.0233459472656 0.352325439453125 135.112060546875 2.927642822265625 C 141.089111328125 5.455734252929688 146.8536224365234 8.584564208984375 152.2454376220703 12.22720336914062 C 157.5847625732422 15.8343505859375 162.6054382324219 19.97676086425781 167.1680297851562 24.53938293457031 C 171.7306518554688 29.10197448730469 175.8730621337891 34.12265014648438 179.4802093505859 39.46197509765625 C 183.1228485107422 44.85379028320312 186.2516784667969 50.61830139160156 188.7797698974609 56.59535217285156 C 191.3550872802734 62.68406677246094 193.3329772949219 69.05576324462891 194.6584930419922 75.53347015380859 C 196.01806640625 82.17746734619141 196.7074127197266 89.01417541503906 196.7074127197266 95.85370635986328 C 196.7074127197266 102.6932373046875 196.01806640625 109.5299453735352 194.6584930419922 116.173942565918 C 193.3329772949219 122.6516494750977 191.3550872802734 129.0233459472656 188.7797698974609 135.112060546875 C 186.2516784667969 141.089111328125 183.1228485107422 146.8536224365234 179.4802093505859 152.2454376220703 C 175.8730621337891 157.5847625732422 171.7306518554688 162.6054382324219 167.1680297851562 167.1680297851562 C 162.6054382324219 171.7306518554688 157.5847625732422 175.8730621337891 152.2454376220703 179.4802093505859 C 146.8536224365234 183.1228485107422 141.089111328125 186.2516784667969 135.112060546875 188.7797698974609 C 129.0233459472656 191.3550872802734 122.6516494750977 193.3329772949219 116.173942565918 194.6584930419922 C 109.5299453735352 196.01806640625 102.6932373046875 196.7074127197266 95.85370635986328 196.7074127197266 C 89.01417541503906 196.7074127197266 82.17746734619141 196.01806640625 75.53347015380859 194.6584930419922 C 69.05576324462891 193.3329772949219 62.68406677246094 191.3550872802734 56.59535217285156 188.7797698974609 C 50.61830139160156 186.2516784667969 44.85379028320312 183.1228485107422 39.46197509765625 179.4802093505859 C 34.12265014648438 175.8730621337891 29.10197448730469 171.7306518554688 24.53938293457031 167.1680297851562 C 19.97676086425781 162.6054382324219 15.8343505859375 157.5847625732422 12.22720336914062 152.2454376220703 C 8.584564208984375 146.8536224365234 5.455734252929688 141.089111328125 2.927642822265625 135.112060546875 C 0.352325439453125 129.0233459472656 -1.625564575195312 122.6516494750977 -2.951080322265625 116.173942565918 C -4.310653686523438 109.5299453735352 -5 102.6932373046875 -5 95.85370635986328 C -5 89.01417541503906 -4.310653686523438 82.17746734619141 -2.951080322265625 75.53347015380859 C -1.625564575195312 69.05576324462891 0.352325439453125 62.68406677246094 2.927642822265625 56.59535217285156 C 5.455734252929688 50.61830139160156 8.584564208984375 44.85379028320312 12.22720336914062 39.46197509765625 C 15.8343505859375 34.12265014648438 19.97676086425781 29.10197448730469 24.53938293457031 24.53938293457031 C 29.10197448730469 19.97676086425781 34.12265014648438 15.8343505859375 39.46197509765625 12.22720336914062 C 44.85379028320312 8.584564208984375 50.61830139160156 5.455734252929688 56.59535217285156 2.927642822265625 C 62.68406677246094 0.352325439453125 69.05576324462891 -1.625564575195312 75.53347015380859 -2.951080322265625 C 82.17746734619141 -4.310653686523438 89.01417541503906 -5 95.85370635986328 -5 Z" stroke="none" fill="#a560e3"/>
      </g>
    </g>
    <g transform="matrix(1, 0, 0, 1, -190.93, -190.93)" filter="url(#Ellipse_11)">
      <circle id="Ellipse_11-2" data-name="Ellipse 11" cx="86" cy="86" r="86" transform="translate(200.95 201.22)" fill="#a560e3"/>
    </g>
    <g id="Group_12083" data-name="Group 12083" transform="translate(32.028 54.024)">
      <text id="SPIN" transform="translate(64.046 53)" fill="#fdfcfe" font-size="61" font-family="Rubik-Bold, Rubik" font-weight="700" letter-spacing="-0.001em"><tspan x="-72.605" y="0">SPIN</tspan></text>
      <text id="_10MPs_ln" data-name="10MPs/ln" transform="translate(64.046 82)" fill="#330f54" font-size="20" font-family="Montserrat-Medium, Montserrat" font-weight="500" letter-spacing="0em"><tspan x="-51.262" y="0">10MPs/ln</tspan></text>
    </g>
  </g>
  <g class="active" id="Group_12094" data-name="Group 12094" transform="matrix(0.819, 0.574, -0.574, 0.819, 441.964, 6.688)">
    <path id="Union_2" data-name="Union 2" d="M.02,26.729s0-.009,0-.014L0,26.679C0,11.945,11.662,0,26.047,0A25.661,25.661,0,0,1,49.875,16.453a27.629,27.629,0,0,1,1.96,10.276,59.9,59.9,0,0,1-7.212,22.785c-6.512,11.732-18.556,24.5-18.556,24.5Z" transform="translate(4.334 4.003)" fill="#18181b"/>
    <g id="Group_12089" data-name="Group 12089" transform="translate(0 0)">
      <g id="Group_12088" data-name="Group 12088" transform="translate(0 0)">
        <g id="Group_12085" data-name="Group 12085" transform="translate(0)" clip-path="url(#clip-path)">
          <path id="Path_15826-2" data-name="Path 15826" d="M56.14,26.932a28.082,28.082,0,1,0-53.927,12.1C8.374,55.717,25.5,75.668,27.821,77.911a.386.386,0,0,0,.53.007c2.542-2.337,22.38-24.081,26.892-42.667.047-.176.088-.355.131-.533s.086-.357.123-.535a28.073,28.073,0,0,0,.582-3.959c0-.052.008-.1.012-.155.046-.656.077-1.317.077-1.984,0-.411-.011-.789-.029-1.153" transform="translate(0 0)" fill="#f05153"/>
        </g>
      </g>
      <g data-type="innerShadowGroup">
        <path id="Path_15826-3" data-name="Path 15826" d="M50.438,24.2A25.23,25.23,0,1,0,1.988,35.064C7.524,50.058,22.909,67.982,25,70a.347.347,0,0,0,.477.006c2.283-2.1,20.107-21.635,24.16-38.334.042-.159.079-.319.118-.479s.077-.32.111-.48a25.222,25.222,0,0,0,.523-3.557c0-.047.007-.093.011-.139.041-.59.07-1.183.07-1.783,0-.369-.01-.709-.026-1.036" transform="translate(2.852 2.181)" fill="#f05153"/>
        <g transform="matrix(0.82, -0.57, 0.57, 0.82, -365.87, 248.02)" filter="url(#Path_15826)">
          <path id="Path_15826-4" data-name="Path 15826" d="M50.438,24.2A25.23,25.23,0,1,0,1.988,35.064C7.524,50.058,22.909,67.982,25,70a.347.347,0,0,0,.477.006c2.283-2.1,20.107-21.635,24.16-38.334.042-.159.079-.319.118-.479s.077-.32.111-.48a25.222,25.222,0,0,0,.523-3.557c0-.047.007-.093.011-.139.041-.59.07-1.183.07-1.783,0-.369-.01-.709-.026-1.036" transform="matrix(0.82, 0.57, -0.57, 0.82, 443.05, 10.11)" fill="#fff"/>
        </g>
        <path id="Path_15826-5" data-name="Path 15826" d="M50.438,24.2A25.23,25.23,0,1,0,1.988,35.064C7.524,50.058,22.909,67.982,25,70a.347.347,0,0,0,.477.006c2.283-2.1,20.107-21.635,24.16-38.334.042-.159.079-.319.118-.479s.077-.32.111-.48a25.222,25.222,0,0,0,.523-3.557c0-.047.007-.093.011-.139.041-.59.07-1.183.07-1.783,0-.369-.01-.709-.026-1.036" transform="translate(2.852 2.181)" fill="none" stroke="#f05153" stroke-width="0.5"/>
      </g>
      <g transform="matrix(0.82, -0.57, 0.57, 0.82, -365.87, 248.02)" filter="url(#Ellipse_14)">
        <circle id="Ellipse_14-2" data-name="Ellipse 14" cx="7.802" cy="7.802" r="7.802" transform="matrix(0.82, 0.57, -0.57, 0.82, 449.06, 28.73)" fill="#fdfcfe"/>
      </g>
    </g>
  </g>
</svg>
