<?xml version="1.0" encoding="UTF-8"?>
<svg width="578px" height="605px" viewBox="0 0 578 605" version="1.1" xmlns="http://www.w3.org/2000/svg" xmlns:xlink="http://www.w3.org/1999/xlink">
    <title>lucky_wheel</title>
    <defs>
        <rect id="path-1" x="0" y="0" width="56.1756556" height="78.0292448"></rect>
    </defs>
    <g id="Page-1" stroke="none" stroke-width="1" fill="none" fill-rule="evenodd">
        <g id="lucky_wheel">
            <g id="Group" transform="translate(0.000000, 26.499557)">
                <g id="Path_15829-2" fill="#A861DF" fill-rule="nonzero">
                    <path d="M289,575.5 C269.559692,575.5 250.132385,573.541626 231.257614,569.679321 C212.863846,565.915405 194.771072,560.299072 177.481995,552.98645 C160.506302,545.806335 144.132919,536.919067 128.816849,526.571777 C113.645615,516.322327 99.3792343,504.551392 86.4139252,491.58609 C73.4485397,478.620758 61.6776924,464.354309 51.4282303,449.183075 C41.0808449,433.867004 32.1936913,417.493683 25.0135384,400.517914 C17.7009239,383.228851 12.0846157,365.136139 8.32069206,346.742371 C4.45838451,327.867615 2.5,308.440308 2.5,289 C2.5,269.559692 4.45838451,250.132385 8.32069206,231.257614 C12.0846157,212.863846 17.7009239,194.771072 25.0135384,177.481995 C32.1936913,160.506302 41.0808449,144.132919 51.4282303,128.816849 C61.6776924,113.645615 73.4485397,99.3792343 86.4139252,86.4139252 C99.3792343,73.4485397 113.645615,61.6776924 128.816849,51.4282303 C144.132919,41.0808449 160.506302,32.1936913 177.481995,25.0135384 C194.771072,17.7009239 212.863846,12.0846157 231.257614,8.32069206 C250.132385,4.45838451 269.559692,2.5 289,2.5 C308.440308,2.5 327.867615,4.45838451 346.742371,8.32069206 C365.136139,12.0846157 383.228851,17.7009239 400.517914,25.0135384 C417.493683,32.1936913 433.867004,41.0808449 449.183075,51.4282303 C464.354309,61.6776924 478.620758,73.4485397 491.58609,86.4139252 C504.551392,99.3792343 516.322327,113.645615 526.571777,128.816849 C536.919067,144.132919 545.806335,160.506302 552.98645,177.481995 C560.299072,194.771072 565.915405,212.863846 569.679321,231.257614 C573.541626,250.132385 575.5,269.559692 575.5,289 C575.5,308.440308 573.541626,327.867615 569.679321,346.742371 C565.915405,365.136139 560.299072,383.228851 552.98645,400.517914 C545.806335,417.493683 536.919067,433.867004 526.571777,449.183075 C516.322327,464.354309 504.551392,478.620758 491.58609,491.58609 C478.620758,504.551392 464.354309,516.322327 449.183075,526.571777 C433.867004,536.919067 417.493683,545.806335 400.517914,552.98645 C383.228851,560.299072 365.136139,565.915405 346.742371,569.679321 C327.867615,573.541626 308.440308,575.5 289,575.5 Z" id="Path"></path>
                    <path d="M289,5 C269.727692,5 250.468994,6.94128418 231.758759,10.7698975 C213.526703,14.5007935 195.592987,20.067688 178.455933,27.3161011 C161.628845,34.4332886 145.398682,43.2427979 130.21637,53.4997559 C115.177002,63.6601562 101.034454,75.3288574 88.1817017,88.1817017 C75.3288574,101.034454 63.6601562,115.177002 53.4997559,130.21637 C43.2427979,145.398682 34.4332886,161.628845 27.3161011,178.455933 C20.067688,195.592987 14.5007935,213.526703 10.7698975,231.758759 C6.94128418,250.468994 5,269.727692 5,289 C5,308.272308 6.94128418,327.531006 10.7698975,346.24115 C14.5007935,364.473328 20.067688,382.406982 27.3161011,399.544067 C34.4332886,416.371155 43.2427979,432.601227 53.4997559,447.78363 C63.6601562,462.822937 75.3288574,476.965454 88.1817017,489.818298 C101.034454,502.671143 115.177002,514.339844 130.21637,524.500244 C145.398682,534.757141 161.628845,543.566711 178.455933,550.683899 C195.592987,557.932312 213.526703,563.499207 231.758759,567.230103 C250.468994,571.058716 269.727692,573 289,573 C308.272308,573 327.531006,571.058716 346.24115,567.230103 C364.473328,563.499207 382.406982,557.932312 399.544067,550.683899 C416.371155,543.566711 432.601227,534.757141 447.78363,524.500244 C462.822937,514.339844 476.965454,502.671143 489.818298,489.818298 C502.671143,476.965454 514.339844,462.822937 524.500244,447.78363 C534.757141,432.601227 543.566711,416.371155 550.683899,399.544067 C557.932312,382.406982 563.499207,364.473328 567.230103,346.24115 C571.058716,327.531006 573,308.272308 573,289 C573,269.727692 571.058716,250.468994 567.230103,231.758759 C563.499207,213.526703 557.932312,195.592987 550.683899,178.455933 C543.566711,161.628845 534.757141,145.398682 524.500244,130.21637 C514.339844,115.177002 502.671143,101.034454 489.818298,88.1817017 C476.965454,75.3288574 462.822937,63.6601562 447.78363,53.4997559 C432.601227,43.2427979 416.371155,34.4332886 399.544067,27.3161011 C382.406982,20.067688 364.473328,14.5007935 346.24115,10.7698975 C327.531006,6.94128418 308.272308,5 289,5 M289,0 C448.610229,0 578,129.389679 578,289 C578,448.610229 448.610229,578 289,578 C129.389679,578 0,448.610229 0,289 C0,129.389679 129.389679,0 289,0 Z" id="Shape"></path>
                </g>
                <g fill="#FFFFFF" fill-rule="nonzero" id="Path_15829-3">
                    <g>
                        <path d="M289,575.5 C269.559692,575.5 250.132385,573.541626 231.257614,569.679321 C212.863846,565.915405 194.771072,560.299072 177.481995,552.98645 C160.506302,545.806335 144.132919,536.919067 128.816849,526.571777 C113.645615,516.322327 99.3792343,504.551392 86.4139252,491.58609 C73.4485397,478.620758 61.6776924,464.354309 51.4282303,449.183075 C41.0808449,433.867004 32.1936913,417.493683 25.0135384,400.517914 C17.7009239,383.228851 12.0846157,365.136139 8.32069206,346.742371 C4.45838451,327.867615 2.5,308.440308 2.5,289 C2.5,269.559692 4.45838451,250.132385 8.32069206,231.257614 C12.0846157,212.863846 17.7009239,194.771072 25.0135384,177.481995 C32.1936913,160.506302 41.0808449,144.132919 51.4282303,128.816849 C61.6776924,113.645615 73.4485397,99.3792343 86.4139252,86.4139252 C99.3792343,73.4485397 113.645615,61.6776924 128.816849,51.4282303 C144.132919,41.0808449 160.506302,32.1936913 177.481995,25.0135384 C194.771072,17.7009239 212.863846,12.0846157 231.257614,8.32069206 C250.132385,4.45838451 269.559692,2.5 289,2.5 C308.440308,2.5 327.867615,4.45838451 346.742371,8.32069206 C365.136139,12.0846157 383.228851,17.7009239 400.517914,25.0135384 C417.493683,32.1936913 433.867004,41.0808449 449.183075,51.4282303 C464.354309,61.6776924 478.620758,73.4485397 491.58609,86.4139252 C504.551392,99.3792343 516.322327,113.645615 526.571777,128.816849 C536.919067,144.132919 545.806335,160.506302 552.98645,177.481995 C560.299072,194.771072 565.915405,212.863846 569.679321,231.257614 C573.541626,250.132385 575.5,269.559692 575.5,289 C575.5,308.440308 573.541626,327.867615 569.679321,346.742371 C565.915405,365.136139 560.299072,383.228851 552.98645,400.517914 C545.806335,417.493683 536.919067,433.867004 526.571777,449.183075 C516.322327,464.354309 504.551392,478.620758 491.58609,491.58609 C478.620758,504.551392 464.354309,516.322327 449.183075,526.571777 C433.867004,536.919067 417.493683,545.806335 400.517914,552.98645 C383.228851,560.299072 365.136139,565.915405 346.742371,569.679321 C327.867615,573.541626 308.440308,575.5 289,575.5 Z" id="Path"></path>
                        <path d="M289,5 C269.727692,5 250.468994,6.94128418 231.758759,10.7698975 C213.526703,14.5007935 195.592987,20.067688 178.455933,27.3161011 C161.628845,34.4332886 145.398682,43.2427979 130.21637,53.4997559 C115.177002,63.6601562 101.034454,75.3288574 88.1817017,88.1817017 C75.3288574,101.034454 63.6601562,115.177002 53.4997559,130.21637 C43.2427979,145.398682 34.4332886,161.628845 27.3161011,178.455933 C20.067688,195.592987 14.5007935,213.526703 10.7698975,231.758759 C6.94128418,250.468994 5,269.727692 5,289 C5,308.272308 6.94128418,327.531006 10.7698975,346.24115 C14.5007935,364.473328 20.067688,382.406982 27.3161011,399.544067 C34.4332886,416.371155 43.2427979,432.601227 53.4997559,447.78363 C63.6601562,462.822937 75.3288574,476.965454 88.1817017,489.818298 C101.034454,502.671143 115.177002,514.339844 130.21637,524.500244 C145.398682,534.757141 161.628845,543.566711 178.455933,550.683899 C195.592987,557.932312 213.526703,563.499207 231.758759,567.230103 C250.468994,571.058716 269.727692,573 289,573 C308.272308,573 327.531006,571.058716 346.24115,567.230103 C364.473328,563.499207 382.406982,557.932312 399.544067,550.683899 C416.371155,543.566711 432.601227,534.757141 447.78363,524.500244 C462.822937,514.339844 476.965454,502.671143 489.818298,489.818298 C502.671143,476.965454 514.339844,462.822937 524.500244,447.78363 C534.757141,432.601227 543.566711,416.371155 550.683899,399.544067 C557.932312,382.406982 563.499207,364.473328 567.230103,346.24115 C571.058716,327.531006 573,308.272308 573,289 C573,269.727692 571.058716,250.468994 567.230103,231.758759 C563.499207,213.526703 557.932312,195.592987 550.683899,178.455933 C543.566711,161.628845 534.757141,145.398682 524.500244,130.21637 C514.339844,115.177002 502.671143,101.034454 489.818298,88.1817017 C476.965454,75.3288574 462.822937,63.6601562 447.78363,53.4997559 C432.601227,43.2427979 416.371155,34.4332886 399.544067,27.3161011 C382.406982,20.067688 364.473328,14.5007935 346.24115,10.7698975 C327.531006,6.94128418 308.272308,5 289,5 M289,0 C448.610229,0 578,129.389679 578,289 C578,448.610229 448.610229,578 289,578 C129.389679,578 0,448.610229 0,289 C0,129.389679 129.389679,0 289,0 Z" id="Shape"></path>
                    </g>
                </g>
                <g id="Path_15829-4">
                    <path d="M289,575.5 C269.559692,575.5 250.132385,573.541626 231.257614,569.679321 C212.863846,565.915405 194.771072,560.299072 177.481995,552.98645 C160.506302,545.806335 144.132919,536.919067 128.816849,526.571777 C113.645615,516.322327 99.3792343,504.551392 86.4139252,491.58609 C73.4485397,478.620758 61.6776924,464.354309 51.4282303,449.183075 C41.0808449,433.867004 32.1936913,417.493683 25.0135384,400.517914 C17.7009239,383.228851 12.0846157,365.136139 8.32069206,346.742371 C4.45838451,327.867615 2.5,308.440308 2.5,289 C2.5,269.559692 4.45838451,250.132385 8.32069206,231.257614 C12.0846157,212.863846 17.7009239,194.771072 25.0135384,177.481995 C32.1936913,160.506302 41.0808449,144.132919 51.4282303,128.816849 C61.6776924,113.645615 73.4485397,99.3792343 86.4139252,86.4139252 C99.3792343,73.4485397 113.645615,61.6776924 128.816849,51.4282303 C144.132919,41.0808449 160.506302,32.1936913 177.481995,25.0135384 C194.771072,17.7009239 212.863846,12.0846157 231.257614,8.32069206 C250.132385,4.45838451 269.559692,2.5 289,2.5 C308.440308,2.5 327.867615,4.45838451 346.742371,8.32069206 C365.136139,12.0846157 383.228851,17.7009239 400.517914,25.0135384 C417.493683,32.1936913 433.867004,41.0808449 449.183075,51.4282303 C464.354309,61.6776924 478.620758,73.4485397 491.58609,86.4139252 C504.551392,99.3792343 516.322327,113.645615 526.571777,128.816849 C536.919067,144.132919 545.806335,160.506302 552.98645,177.481995 C560.299072,194.771072 565.915405,212.863846 569.679321,231.257614 C573.541626,250.132385 575.5,269.559692 575.5,289 C575.5,308.440308 573.541626,327.867615 569.679321,346.742371 C565.915405,365.136139 560.299072,383.228851 552.98645,400.517914 C545.806335,417.493683 536.919067,433.867004 526.571777,449.183075 C516.322327,464.354309 504.551392,478.620758 491.58609,491.58609 C478.620758,504.551392 464.354309,516.322327 449.183075,526.571777 C433.867004,536.919067 417.493683,545.806335 400.517914,552.98645 C383.228851,560.299072 365.136139,565.915405 346.742371,569.679321 C327.867615,573.541626 308.440308,575.5 289,575.5 Z" id="Path"></path>
                    <path d="M289,5 C269.727692,5 250.468994,6.94128418 231.758759,10.7698975 C213.526703,14.5007935 195.592987,20.067688 178.455933,27.3161011 C161.628845,34.4332886 145.398682,43.2427979 130.21637,53.4997559 C115.177002,63.6601562 101.034454,75.3288574 88.1817017,88.1817017 C75.3288574,101.034454 63.6601562,115.177002 53.4997559,130.21637 C43.2427979,145.398682 34.4332886,161.628845 27.3161011,178.455933 C20.067688,195.592987 14.5007935,213.526703 10.7698975,231.758759 C6.94128418,250.468994 5,269.727692 5,289 C5,308.272308 6.94128418,327.531006 10.7698975,346.24115 C14.5007935,364.473328 20.067688,382.406982 27.3161011,399.544067 C34.4332886,416.371155 43.2427979,432.601227 53.4997559,447.78363 C63.6601562,462.822937 75.3288574,476.965454 88.1817017,489.818298 C101.034454,502.671143 115.177002,514.339844 130.21637,524.500244 C145.398682,534.757141 161.628845,543.566711 178.455933,550.683899 C195.592987,557.932312 213.526703,563.499207 231.758759,567.230103 C250.468994,571.058716 269.727692,573 289,573 C308.272308,573 327.531006,571.058716 346.24115,567.230103 C364.473328,563.499207 382.406982,557.932312 399.544067,550.683899 C416.371155,543.566711 432.601227,534.757141 447.78363,524.500244 C462.822937,514.339844 476.965454,502.671143 489.818298,489.818298 C502.671143,476.965454 514.339844,462.822937 524.500244,447.78363 C534.757141,432.601227 543.566711,416.371155 550.683899,399.544067 C557.932312,382.406982 563.499207,364.473328 567.230103,346.24115 C571.058716,327.531006 573,308.272308 573,289 C573,269.727692 571.058716,250.468994 567.230103,231.758759 C563.499207,213.526703 557.932312,195.592987 550.683899,178.455933 C543.566711,161.628845 534.757141,145.398682 524.500244,130.21637 C514.339844,115.177002 502.671143,101.034454 489.818298,88.1817017 C476.965454,75.3288574 462.822937,63.6601562 447.78363,53.4997559 C432.601227,43.2427979 416.371155,34.4332886 399.544067,27.3161011 C382.406982,20.067688 364.473328,14.5007935 346.24115,10.7698975 C327.531006,6.94128418 308.272308,5 289,5 M289,0 C448.610229,0 578,129.389679 578,289 C578,448.610229 448.610229,578 289,578 C129.389679,578 0,448.610229 0,289 C0,129.389679 129.389679,0 289,0 Z" id="Shape" fill="#A861DF" fill-rule="nonzero"></path>
                </g>
            </g>
            <path d="M289,48.7915571 C436.3,48.7915571 555.708,168.200557 555.708,315.499557 C555.708,462.798557 436.299,582.208557 289,582.208557 C141.701,582.208557 22.292,462.798557 22.292,315.499557 C22.292,168.200557 141.701,48.7915571 289,48.7915571 Z" id="Path_15830" fill="#501784" fill-rule="nonzero"></path>
            <path d="M290.115,53.2495571 C435.567,53.2495571 553.479,171.161557 553.479,316.614557 C553.479,462.067557 435.567,579.978557 290.115,579.978557 C144.663,579.978557 26.75,462.066557 26.75,316.614557 C26.75,171.162557 144.662,53.2495571 290.115,53.2495571 Z" id="Path_15831" fill="#A560E3" fill-rule="nonzero"></path>
            <g class="wheel" id="Group_12091" transform="translate(24.735000, 51.499557)">
                <path d="M265.178,265.299 L87.005,80.001 C136.325,32.169 196.613,7.704 265.178,7.704 L265.178,265.299 Z" id="Path_11199" fill="#B27CE2" fill-rule="nonzero"></path>
                <path d="M265.178,265.299 L87.005,80.001 C136.325,32.169 196.613,7.704 265.178,7.704 L265.178,265.299 Z" id="Path_11200"></path>
                <path d="M265.569,264.933 L9.236,255.943 C11.63,187.128 38.078,127.466 87.396,79.635 L265.569,264.933 Z" id="Path_11201" fill="#7A37B8" fill-rule="nonzero"></path>
                <path d="M265.569,264.933 L9.236,255.943 C11.63,187.128 38.078,127.466 87.396,79.635 L265.569,264.933 Z" id="Path_11202"></path>
                <path d="M265.569,264.15 L71.996,433.148 C27.014,381.176 6.843,323.976 9.235,255.161 L265.569,264.15 Z" id="Path_11203" fill="#330F54" fill-rule="nonzero"></path>
                <path d="M265.569,264.15 L71.996,433.148 C27.014,381.176 6.843,323.976 9.235,255.161 L265.569,264.15 Z" id="Path_11204"></path>
                <path d="M265.569,263.718 L243.214,520.333 C174.914,514.333 116.974,484.682 71.994,432.715 L265.569,263.718 Z" id="Path_11205" fill="#B27CE2" fill-rule="nonzero"></path>
                <path d="M265.569,263.718 L243.214,520.333 C174.914,514.333 116.974,484.682 71.994,432.715 L265.569,263.718 Z" id="Path_11206"></path>
                <path d="M264.462,263.718 L425.874,463.905 C372.593,507.238 310.406,526.332 242.106,520.331 L264.462,263.718 Z" id="Path_11207" fill="#A560E3" fill-rule="nonzero"></path>
                <path d="M264.462,263.718 L425.874,463.905 C372.593,507.238 310.406,526.332 242.106,520.331 L264.462,263.718 Z" id="Path_11208"></path>
                <path d="M263.988,263.718 L517.98,299.568 C508.438,367.754 478.68,420.574 425.401,463.907 L263.988,263.718 Z" id="Path_11209" fill="#E0C8F5" fill-rule="nonzero"></path>
                <path d="M263.988,263.718 L517.98,299.568 C508.438,367.754 478.68,420.574 425.401,463.907 L263.988,263.718 Z" id="Path_11210"></path>
                <path d="M263.988,264.775 L471.492,113.364 C511.792,169.071 527.522,232.439 517.98,300.626 L263.988,264.775 Z" id="Path_11211" fill="#501784" fill-rule="nonzero"></path>
                <path d="M263.988,264.775 L471.492,113.364 C511.792,169.071 527.522,232.439 517.98,300.626 L263.988,264.775 Z" id="Path_11212"></path>
                <path d="M263.988,265.298 L308.527,11.616 C376.046,23.573 431.193,58.181 471.492,113.887 L263.988,265.298 Z" id="Path_11213" fill="#A560E3" fill-rule="nonzero"></path>
                <path d="M263.988,265.298 L308.527,11.616 C376.046,23.573 431.193,58.181 471.492,113.887 L263.988,265.298 Z" id="Path_11214"></path>
                <path d="M264.706,265.299 L264.706,7.704 C279.645972,7.51065676 294.567481,8.82125966 309.245,11.616 L264.706,265.299 Z" id="Path_11215" fill="#FDFCFE" fill-rule="nonzero"></path>
                <path d="M264.706,265.299 L264.706,7.704 C279.645972,7.51065676 294.567481,8.82125966 309.245,11.616 L264.706,265.299 Z" id="Path_11216"></path>
                <rect id="Rectangle_7012" x="0" y="0" width="529.419" height="529.419"></rect>
                <g id="JACKPOT" transform="translate(277.149648, 115.258116) rotate(-85.007919) translate(-277.149648, -115.258116) translate(243.156704, 106.759880)" fill="#FA5158" fill-rule="nonzero" font-family="RubikRoman-ExtraBold, Rubik" font-size="14" font-weight="700">
                    <text>
                        <tspan x="0" y="13">JACKPOT</tspan>
                    </text>
                </g>
                <g id="Group_12092" transform="translate(166.081000, 43.000000)" fill="#FDFCFE" fill-rule="nonzero">
                    <g id="Group" font-family="Montserrat-Bold, Montserrat" font-size="48" font-weight="bold">
                        <g id="_3-2">
                            <text id="+3">
                                <tspan x="0" y="46">+3</tspan>
                            </text>
                        </g>
                    </g>
                    <g id="Group" transform="translate(4.754000, 58.000000)" font-family="Rubik-Regular, Rubik" font-size="24" font-weight="normal">
                        <g id="MPs-9">
                            <text id="MPs">
                                <tspan x="0" y="22">MPs</tspan>
                            </text>
                        </g>
                    </g>
                </g>
                <g id="Group_15046" transform="translate(60.579000, 154.000000)" fill="#FDFCFE" fill-rule="nonzero">
                    <g id="Group" font-family="Montserrat-Bold, Montserrat" font-size="48" font-weight="bold">
                        <g id="_9-2">
                            <text id="+9">
                                <tspan x="0" y="46">+9</tspan>
                            </text>
                        </g>
                    </g>
                    <g id="Group" transform="translate(6.314000, 58.000000)" font-family="Rubik-Regular, Rubik" font-size="24" font-weight="normal">
                        <g id="MPs-10">
                            <text id="MPs">
                                <tspan x="0" y="22">MPs</tspan>
                            </text>
                        </g>
                    </g>
                </g>
                <g id="Group_15040" transform="translate(334.543000, 62.000000)" fill="#FDFCFE" fill-rule="nonzero">
                    <g id="Group" transform="translate(0.070000, 0.000000)" font-family="Montserrat-Bold, Montserrat" font-size="48" font-weight="bold">
                        <g id="_1-2">
                            <text id="+1">
                                <tspan x="0" y="46">+1</tspan>
                            </text>
                        </g>
                    </g>
                    <g id="Group" transform="translate(0.000000, 58.000000)" font-family="Rubik-Regular, Rubik" font-size="24" font-weight="normal">
                        <g id="MPs-11">
                            <text id="MPs">
                                <tspan x="0" y="22">MPs</tspan>
                            </text>
                        </g>
                    </g>
                </g>
                <g id="Group_15041" transform="translate(403.287000, 178.000000)" fill="#FDFCFE" fill-rule="nonzero">
                    <g id="Group" font-family="Montserrat-Bold, Montserrat" font-size="48" font-weight="bold">
                        <g id="_15-2">
                            <text id="+15">
                                <tspan x="0" y="46">+15</tspan>
                            </text>
                        </g>
                    </g>
                    <g id="Group" transform="translate(14.216000, 58.000000)" font-family="Rubik-Regular, Rubik" font-size="24" font-weight="normal">
                        <g id="MPs-12">
                            <text id="MPs">
                                <tspan x="0" y="22">MPs</tspan>
                            </text>
                        </g>
                    </g>
                </g>
                <g id="Group_15042" transform="translate(389.197000, 314.634000)" fill="#FDFCFE" fill-rule="nonzero">
                    <g id="Group" font-family="Montserrat-Bold, Montserrat" font-size="48" font-weight="bold">
                        <g id="_5-2">
                            <text id="+5">
                                <tspan x="0" y="46">+5</tspan>
                            </text>
                        </g>
                    </g>
                    <g id="Group" transform="translate(5.306000, 58.000000)" font-family="Rubik-Regular, Rubik" font-size="24" font-weight="normal">
                        <g id="MPs-13">
                            <text id="MPs">
                                <tspan x="0" y="22">MPs</tspan>
                            </text>
                        </g>
                    </g>
                </g>
                <g id="Group_15043" transform="translate(276.359000, 396.634000)" fill="#FDFCFE" fill-rule="nonzero">
                    <g id="Group" font-family="Montserrat-Bold, Montserrat" font-size="48" font-weight="bold">
                        <g id="_13-2">
                            <text id="+13">
                                <tspan x="0" y="46">+13</tspan>
                            </text>
                        </g>
                    </g>
                    <g id="Group" transform="translate(14.144000, 58.000000)" font-family="Rubik-Regular, Rubik" font-size="24" font-weight="normal">
                        <g id="MPs-14">
                            <text id="MPs">
                                <tspan x="0" y="22">MPs</tspan>
                            </text>
                        </g>
                    </g>
                </g>
                <g id="Group_15044" transform="translate(151.837000, 382.634000)" fill="#FDFCFE" fill-rule="nonzero">
                    <g id="Group" font-family="Montserrat-Bold, Montserrat" font-size="48" font-weight="bold">
                        <g id="_7-2">
                            <text id="+7">
                                <tspan x="0" y="46">+7</tspan>
                            </text>
                        </g>
                    </g>
                    <g id="Group" transform="translate(5.666000, 58.000000)" font-family="Rubik-Regular, Rubik" font-size="24" font-weight="normal">
                        <g id="MPs-15">
                            <text id="MPs">
                                <tspan x="0" y="22">MPs</tspan>
                            </text>
                        </g>
                    </g>
                </g>
                <g id="Group_15045" transform="translate(58.300000, 278.213000)" fill="#FDFCFE" fill-rule="nonzero">
                    <g id="Group" font-family="Montserrat-Bold, Montserrat" font-size="48" font-weight="bold">
                        <g id="_11-2">
                            <text id="+11">
                                <tspan x="0" y="46">+11</tspan>
                            </text>
                        </g>
                    </g>
                    <g id="Group" transform="translate(9.344000, 58.000000)" font-family="Rubik-Regular, Rubik" font-size="24" font-weight="normal">
                        <g id="MPs-16">
                            <text id="MPs">
                                <tspan x="0" y="22">MPs</tspan>
                            </text>
                        </g>
                    </g>
                </g>
            </g>
            <circle id="Ellipse_16" fill="#52525B" fill-rule="nonzero" cx="288.945" cy="314.712557" r="101"></circle>
            <g class="spin" id="Group_12093" transform="translate(185.926000, 212.425557)">
                <g id="Group">
                    <g transform="translate(0.000000, 0.000000)" fill="#A560E3" fill-rule="nonzero" id="Path_15470-3">
                        <g transform="translate(-0.000000, -0.000000)">
                            <path d="M100.853706,199.207413 C94.1821823,199.207413 87.5140762,198.535126 81.0346527,197.209259 C74.7186279,195.916809 68.50597,193.988281 62.5692329,191.477264 C56.7408371,189.012054 51.1195488,185.960937 45.8614693,182.408661 C40.6540222,178.890579 35.7572327,174.850357 31.307127,170.400284 C26.857048,165.95018 22.8168373,161.053391 19.2987595,155.845947 C15.7464695,150.58786 12.6953645,144.966568 10.2301536,139.138184 C7.71912742,133.201447 5.79060107,126.988785 4.49815375,120.67276 C3.17228532,114.193336 2.49999595,107.52523 2.49999595,100.853706 C2.49999595,94.1821823 3.17228532,87.5140762 4.49815375,81.0346527 C5.79060107,74.7186279 7.71912742,68.50597 10.2301536,62.5692329 C12.6953645,56.7408371 15.7464695,51.1195488 19.2987595,45.8614693 C22.8168373,40.6540222 26.857048,35.7572327 31.307127,31.307127 C35.7572327,26.857048 40.6540222,22.8168373 45.8614693,19.2987595 C51.1195488,15.7464695 56.7408371,12.6953645 62.5692329,10.2301536 C68.50597,7.71912742 74.7186279,5.79060107 81.0346527,4.49815375 C87.5140762,3.17228532 94.1821823,2.49999595 100.853706,2.49999595 C107.52523,2.49999595 114.193336,3.17228532 120.67276,4.49815375 C126.988785,5.79060107 133.201447,7.71912742 139.138184,10.2301536 C144.966568,12.6953645 150.58786,15.7464695 155.845947,19.2987595 C161.053391,22.8168373 165.95018,26.857048 170.400284,31.307127 C174.850357,35.7572327 178.890579,40.6540222 182.408661,45.8614693 C185.960937,51.1195488 189.012054,56.7408371 191.477264,62.5692329 C193.988281,68.50597 195.916809,74.7186279 197.209259,81.0346527 C198.535126,87.5140762 199.207413,94.1821823 199.207413,100.853706 C199.207413,107.52523 198.535126,114.193336 197.209259,120.67276 C195.916809,126.988785 193.988281,133.201447 191.477264,139.138184 C189.012054,144.966568 185.960937,150.58786 182.408661,155.845947 C178.890579,161.053391 174.850357,165.95018 170.400284,170.400284 C165.95018,174.850357 161.053391,178.890579 155.845947,182.408661 C150.58786,185.960937 144.966568,189.012054 139.138184,191.477264 C133.201447,193.988281 126.988785,195.916809 120.67276,197.209259 C114.193336,198.535126 107.52523,199.207413 100.853706,199.207413 Z" id="Path"></path>
                            <path d="M100.853706,5 C47.9151764,5 5,47.9151764 5,100.853706 C5,153.792236 47.9151764,196.707413 100.853706,196.707413 C153.792236,196.707413 196.707413,153.792236 196.707413,100.853706 C196.707413,47.9151764 153.792236,5 100.853706,5 M100.853706,0 C107.693237,0 114.529945,0.689346313 121.173943,2.04891968 C127.651649,3.37443542 134.023346,5.35232544 140.112061,7.92764282 C146.089111,10.4557343 151.853622,13.5845642 157.245438,17.2272034 C162.584763,20.8343506 167.605438,24.9767609 172.16803,29.5393829 C176.730652,34.1019745 180.873062,39.1226501 184.480209,44.4619751 C188.122849,49.8537903 191.251678,55.6183014 193.77977,61.5953522 C196.355087,67.6840668 198.332977,74.0557632 199.658493,80.5334702 C201.018066,87.1774673 201.707413,94.0141754 201.707413,100.853706 C201.707413,107.693237 201.018066,114.529945 199.658493,121.173943 C198.332977,127.651649 196.355087,134.023346 193.77977,140.112061 C191.251678,146.089111 188.122849,151.853622 184.480209,157.245438 C180.873062,162.584763 176.730652,167.605438 172.16803,172.16803 C167.605438,176.730652 162.584763,180.873062 157.245438,184.480209 C151.853622,188.122849 146.089111,191.251678 140.112061,193.77977 C134.023346,196.355087 127.651649,198.332977 121.173943,199.658493 C114.529945,201.018066 107.693237,201.707413 100.853706,201.707413 C94.0141754,201.707413 87.1774673,201.018066 80.5334702,199.658493 C74.0557632,198.332977 67.6840668,196.355087 61.5953522,193.77977 C55.6183014,191.251678 49.8537903,188.122849 44.4619751,184.480209 C39.1226501,180.873062 34.1019745,176.730652 29.5393829,172.16803 C24.9767609,167.605438 20.8343506,162.584763 17.2272034,157.245438 C13.5845642,151.853622 10.4557343,146.089111 7.92764282,140.112061 C5.35232544,134.023346 3.37443542,127.651649 2.04891968,121.173943 C0.689346313,114.529945 0,107.693237 0,100.853706 C0,94.0141754 0.689346313,87.1774673 2.04891968,80.5334702 C3.37443542,74.0557632 5.35232544,67.6840668 7.92764282,61.5953522 C10.4557343,55.6183014 13.5845642,49.8537903 17.2272034,44.4619751 C20.8343506,39.1226501 24.9767609,34.1019745 29.5393829,29.5393829 C34.1019745,24.9767609 39.1226501,20.8343506 44.4619751,17.2272034 C49.8537903,13.5845642 55.6183014,10.4557343 61.5953522,7.92764282 C67.6840668,5.35232544 74.0557632,3.37443542 80.5334702,2.04891968 C87.1774673,0.689346313 94.0141754,0 100.853706,0 Z" id="Shape"></path>
                        </g>
                    </g>
                    <g id="Path_15470-4" fill="#A560E3" fill-rule="nonzero">
                        <path d="M100.853706,199.207413 C94.1821823,199.207413 87.5140762,198.535126 81.0346527,197.209259 C74.7186279,195.916809 68.50597,193.988281 62.5692329,191.477264 C56.7408371,189.012054 51.1195488,185.960937 45.8614693,182.408661 C40.6540222,178.890579 35.7572327,174.850357 31.307127,170.400284 C26.857048,165.95018 22.8168373,161.053391 19.2987595,155.845947 C15.7464695,150.58786 12.6953645,144.966568 10.2301536,139.138184 C7.71912742,133.201447 5.79060107,126.988785 4.49815375,120.67276 C3.17228532,114.193336 2.49999595,107.52523 2.49999595,100.853706 C2.49999595,94.1821823 3.17228532,87.5140762 4.49815375,81.0346527 C5.79060107,74.7186279 7.71912742,68.50597 10.2301536,62.5692329 C12.6953645,56.7408371 15.7464695,51.1195488 19.2987595,45.8614693 C22.8168373,40.6540222 26.857048,35.7572327 31.307127,31.307127 C35.7572327,26.857048 40.6540222,22.8168373 45.8614693,19.2987595 C51.1195488,15.7464695 56.7408371,12.6953645 62.5692329,10.2301536 C68.50597,7.71912742 74.7186279,5.79060107 81.0346527,4.49815375 C87.5140762,3.17228532 94.1821823,2.49999595 100.853706,2.49999595 C107.52523,2.49999595 114.193336,3.17228532 120.67276,4.49815375 C126.988785,5.79060107 133.201447,7.71912742 139.138184,10.2301536 C144.966568,12.6953645 150.58786,15.7464695 155.845947,19.2987595 C161.053391,22.8168373 165.95018,26.857048 170.400284,31.307127 C174.850357,35.7572327 178.890579,40.6540222 182.408661,45.8614693 C185.960937,51.1195488 189.012054,56.7408371 191.477264,62.5692329 C193.988281,68.50597 195.916809,74.7186279 197.209259,81.0346527 C198.535126,87.5140762 199.207413,94.1821823 199.207413,100.853706 C199.207413,107.52523 198.535126,114.193336 197.209259,120.67276 C195.916809,126.988785 193.988281,133.201447 191.477264,139.138184 C189.012054,144.966568 185.960937,150.58786 182.408661,155.845947 C178.890579,161.053391 174.850357,165.95018 170.400284,170.400284 C165.95018,174.850357 161.053391,178.890579 155.845947,182.408661 C150.58786,185.960937 144.966568,189.012054 139.138184,191.477264 C133.201447,193.988281 126.988785,195.916809 120.67276,197.209259 C114.193336,198.535126 107.52523,199.207413 100.853706,199.207413 Z" id="Path"></path>
                        <path d="M100.853706,5 C47.9151764,5 5,47.9151764 5,100.853706 C5,153.792236 47.9151764,196.707413 100.853706,196.707413 C153.792236,196.707413 196.707413,153.792236 196.707413,100.853706 C196.707413,47.9151764 153.792236,5 100.853706,5 M100.853706,0 C107.693237,0 114.529945,0.689346313 121.173943,2.04891968 C127.651649,3.37443542 134.023346,5.35232544 140.112061,7.92764282 C146.089111,10.4557343 151.853622,13.5845642 157.245438,17.2272034 C162.584763,20.8343506 167.605438,24.9767609 172.16803,29.5393829 C176.730652,34.1019745 180.873062,39.1226501 184.480209,44.4619751 C188.122849,49.8537903 191.251678,55.6183014 193.77977,61.5953522 C196.355087,67.6840668 198.332977,74.0557632 199.658493,80.5334702 C201.018066,87.1774673 201.707413,94.0141754 201.707413,100.853706 C201.707413,107.693237 201.018066,114.529945 199.658493,121.173943 C198.332977,127.651649 196.355087,134.023346 193.77977,140.112061 C191.251678,146.089111 188.122849,151.853622 184.480209,157.245438 C180.873062,162.584763 176.730652,167.605438 172.16803,172.16803 C167.605438,176.730652 162.584763,180.873062 157.245438,184.480209 C151.853622,188.122849 146.089111,191.251678 140.112061,193.77977 C134.023346,196.355087 127.651649,198.332977 121.173943,199.658493 C114.529945,201.018066 107.693237,201.707413 100.853706,201.707413 C94.0141754,201.707413 87.1774673,201.018066 80.5334702,199.658493 C74.0557632,198.332977 67.6840668,196.355087 61.5953522,193.77977 C55.6183014,191.251678 49.8537903,188.122849 44.4619751,184.480209 C39.1226501,180.873062 34.1019745,176.730652 29.5393829,172.16803 C24.9767609,167.605438 20.8343506,162.584763 17.2272034,157.245438 C13.5845642,151.853622 10.4557343,146.089111 7.92764282,140.112061 C5.35232544,134.023346 3.37443542,127.651649 2.04891968,121.173943 C0.689346313,114.529945 0,107.693237 0,100.853706 C0,94.0141754 0.689346313,87.1774673 2.04891968,80.5334702 C3.37443542,74.0557632 5.35232544,67.6840668 7.92764282,61.5953522 C10.4557343,55.6183014 13.5845642,49.8537903 17.2272034,44.4619751 C20.8343506,39.1226501 24.9767609,34.1019745 29.5393829,29.5393829 C34.1019745,24.9767609 39.1226501,20.8343506 44.4619751,17.2272034 C49.8537903,13.5845642 55.6183014,10.4557343 61.5953522,7.92764282 C67.6840668,5.35232544 74.0557632,3.37443542 80.5334702,2.04891968 C87.1774673,0.689346313 94.0141754,0 100.853706,0 Z" id="Shape"></path>
                    </g>
                    <g transform="translate(0.000000, 0.000000)" fill="#FFFFFF" fill-rule="nonzero" id="Path_15470-5">
                        <g transform="translate(-0.000000, -0.000000)">
                            <path d="M100.853706,199.207413 C94.1821823,199.207413 87.5140762,198.535126 81.0346527,197.209259 C74.7186279,195.916809 68.50597,193.988281 62.5692329,191.477264 C56.7408371,189.012054 51.1195488,185.960937 45.8614693,182.408661 C40.6540222,178.890579 35.7572327,174.850357 31.307127,170.400284 C26.857048,165.95018 22.8168373,161.053391 19.2987595,155.845947 C15.7464695,150.58786 12.6953645,144.966568 10.2301536,139.138184 C7.71912742,133.201447 5.79060107,126.988785 4.49815375,120.67276 C3.17228532,114.193336 2.49999595,107.52523 2.49999595,100.853706 C2.49999595,94.1821823 3.17228532,87.5140762 4.49815375,81.0346527 C5.79060107,74.7186279 7.71912742,68.50597 10.2301536,62.5692329 C12.6953645,56.7408371 15.7464695,51.1195488 19.2987595,45.8614693 C22.8168373,40.6540222 26.857048,35.7572327 31.307127,31.307127 C35.7572327,26.857048 40.6540222,22.8168373 45.8614693,19.2987595 C51.1195488,15.7464695 56.7408371,12.6953645 62.5692329,10.2301536 C68.50597,7.71912742 74.7186279,5.79060107 81.0346527,4.49815375 C87.5140762,3.17228532 94.1821823,2.49999595 100.853706,2.49999595 C107.52523,2.49999595 114.193336,3.17228532 120.67276,4.49815375 C126.988785,5.79060107 133.201447,7.71912742 139.138184,10.2301536 C144.966568,12.6953645 150.58786,15.7464695 155.845947,19.2987595 C161.053391,22.8168373 165.95018,26.857048 170.400284,31.307127 C174.850357,35.7572327 178.890579,40.6540222 182.408661,45.8614693 C185.960937,51.1195488 189.012054,56.7408371 191.477264,62.5692329 C193.988281,68.50597 195.916809,74.7186279 197.209259,81.0346527 C198.535126,87.5140762 199.207413,94.1821823 199.207413,100.853706 C199.207413,107.52523 198.535126,114.193336 197.209259,120.67276 C195.916809,126.988785 193.988281,133.201447 191.477264,139.138184 C189.012054,144.966568 185.960937,150.58786 182.408661,155.845947 C178.890579,161.053391 174.850357,165.95018 170.400284,170.400284 C165.95018,174.850357 161.053391,178.890579 155.845947,182.408661 C150.58786,185.960937 144.966568,189.012054 139.138184,191.477264 C133.201447,193.988281 126.988785,195.916809 120.67276,197.209259 C114.193336,198.535126 107.52523,199.207413 100.853706,199.207413 Z" id="Path"></path>
                            <path d="M100.853706,5 C47.9151764,5 5,47.9151764 5,100.853706 C5,153.792236 47.9151764,196.707413 100.853706,196.707413 C153.792236,196.707413 196.707413,153.792236 196.707413,100.853706 C196.707413,47.9151764 153.792236,5 100.853706,5 M100.853706,0 C107.693237,0 114.529945,0.689346313 121.173943,2.04891968 C127.651649,3.37443542 134.023346,5.35232544 140.112061,7.92764282 C146.089111,10.4557343 151.853622,13.5845642 157.245438,17.2272034 C162.584763,20.8343506 167.605438,24.9767609 172.16803,29.5393829 C176.730652,34.1019745 180.873062,39.1226501 184.480209,44.4619751 C188.122849,49.8537903 191.251678,55.6183014 193.77977,61.5953522 C196.355087,67.6840668 198.332977,74.0557632 199.658493,80.5334702 C201.018066,87.1774673 201.707413,94.0141754 201.707413,100.853706 C201.707413,107.693237 201.018066,114.529945 199.658493,121.173943 C198.332977,127.651649 196.355087,134.023346 193.77977,140.112061 C191.251678,146.089111 188.122849,151.853622 184.480209,157.245438 C180.873062,162.584763 176.730652,167.605438 172.16803,172.16803 C167.605438,176.730652 162.584763,180.873062 157.245438,184.480209 C151.853622,188.122849 146.089111,191.251678 140.112061,193.77977 C134.023346,196.355087 127.651649,198.332977 121.173943,199.658493 C114.529945,201.018066 107.693237,201.707413 100.853706,201.707413 C94.0141754,201.707413 87.1774673,201.018066 80.5334702,199.658493 C74.0557632,198.332977 67.6840668,196.355087 61.5953522,193.77977 C55.6183014,191.251678 49.8537903,188.122849 44.4619751,184.480209 C39.1226501,180.873062 34.1019745,176.730652 29.5393829,172.16803 C24.9767609,167.605438 20.8343506,162.584763 17.2272034,157.245438 C13.5845642,151.853622 10.4557343,146.089111 7.92764282,140.112061 C5.35232544,134.023346 3.37443542,127.651649 2.04891968,121.173943 C0.689346313,114.529945 0,107.693237 0,100.853706 C0,94.0141754 0.689346313,87.1774673 2.04891968,80.5334702 C3.37443542,74.0557632 5.35232544,67.6840668 7.92764282,61.5953522 C10.4557343,55.6183014 13.5845642,49.8537903 17.2272034,44.4619751 C20.8343506,39.1226501 24.9767609,34.1019745 29.5393829,29.5393829 C34.1019745,24.9767609 39.1226501,20.8343506 44.4619751,17.2272034 C49.8537903,13.5845642 55.6183014,10.4557343 61.5953522,7.92764282 C67.6840668,5.35232544 74.0557632,3.37443542 80.5334702,2.04891968 C87.1774673,0.689346313 94.0141754,0 100.853706,0 Z" id="Shape"></path>
                        </g>
                    </g>
                    <g id="Path_15470-6">
                        <path d="M100.853706,199.207413 C94.1821823,199.207413 87.5140762,198.535126 81.0346527,197.209259 C74.7186279,195.916809 68.50597,193.988281 62.5692329,191.477264 C56.7408371,189.012054 51.1195488,185.960937 45.8614693,182.408661 C40.6540222,178.890579 35.7572327,174.850357 31.307127,170.400284 C26.857048,165.95018 22.8168373,161.053391 19.2987595,155.845947 C15.7464695,150.58786 12.6953645,144.966568 10.2301536,139.138184 C7.71912742,133.201447 5.79060107,126.988785 4.49815375,120.67276 C3.17228532,114.193336 2.49999595,107.52523 2.49999595,100.853706 C2.49999595,94.1821823 3.17228532,87.5140762 4.49815375,81.0346527 C5.79060107,74.7186279 7.71912742,68.50597 10.2301536,62.5692329 C12.6953645,56.7408371 15.7464695,51.1195488 19.2987595,45.8614693 C22.8168373,40.6540222 26.857048,35.7572327 31.307127,31.307127 C35.7572327,26.857048 40.6540222,22.8168373 45.8614693,19.2987595 C51.1195488,15.7464695 56.7408371,12.6953645 62.5692329,10.2301536 C68.50597,7.71912742 74.7186279,5.79060107 81.0346527,4.49815375 C87.5140762,3.17228532 94.1821823,2.49999595 100.853706,2.49999595 C107.52523,2.49999595 114.193336,3.17228532 120.67276,4.49815375 C126.988785,5.79060107 133.201447,7.71912742 139.138184,10.2301536 C144.966568,12.6953645 150.58786,15.7464695 155.845947,19.2987595 C161.053391,22.8168373 165.95018,26.857048 170.400284,31.307127 C174.850357,35.7572327 178.890579,40.6540222 182.408661,45.8614693 C185.960937,51.1195488 189.012054,56.7408371 191.477264,62.5692329 C193.988281,68.50597 195.916809,74.7186279 197.209259,81.0346527 C198.535126,87.5140762 199.207413,94.1821823 199.207413,100.853706 C199.207413,107.52523 198.535126,114.193336 197.209259,120.67276 C195.916809,126.988785 193.988281,133.201447 191.477264,139.138184 C189.012054,144.966568 185.960937,150.58786 182.408661,155.845947 C178.890579,161.053391 174.850357,165.95018 170.400284,170.400284 C165.95018,174.850357 161.053391,178.890579 155.845947,182.408661 C150.58786,185.960937 144.966568,189.012054 139.138184,191.477264 C133.201447,193.988281 126.988785,195.916809 120.67276,197.209259 C114.193336,198.535126 107.52523,199.207413 100.853706,199.207413 Z" id="Path"></path>
                        <path d="M100.853706,5 C47.9151764,5 5,47.9151764 5,100.853706 C5,153.792236 47.9151764,196.707413 100.853706,196.707413 C153.792236,196.707413 196.707413,153.792236 196.707413,100.853706 C196.707413,47.9151764 153.792236,5 100.853706,5 M100.853706,0 C107.693237,0 114.529945,0.689346313 121.173943,2.04891968 C127.651649,3.37443542 134.023346,5.35232544 140.112061,7.92764282 C146.089111,10.4557343 151.853622,13.5845642 157.245438,17.2272034 C162.584763,20.8343506 167.605438,24.9767609 172.16803,29.5393829 C176.730652,34.1019745 180.873062,39.1226501 184.480209,44.4619751 C188.122849,49.8537903 191.251678,55.6183014 193.77977,61.5953522 C196.355087,67.6840668 198.332977,74.0557632 199.658493,80.5334702 C201.018066,87.1774673 201.707413,94.0141754 201.707413,100.853706 C201.707413,107.693237 201.018066,114.529945 199.658493,121.173943 C198.332977,127.651649 196.355087,134.023346 193.77977,140.112061 C191.251678,146.089111 188.122849,151.853622 184.480209,157.245438 C180.873062,162.584763 176.730652,167.605438 172.16803,172.16803 C167.605438,176.730652 162.584763,180.873062 157.245438,184.480209 C151.853622,188.122849 146.089111,191.251678 140.112061,193.77977 C134.023346,196.355087 127.651649,198.332977 121.173943,199.658493 C114.529945,201.018066 107.693237,201.707413 100.853706,201.707413 C94.0141754,201.707413 87.1774673,201.018066 80.5334702,199.658493 C74.0557632,198.332977 67.6840668,196.355087 61.5953522,193.77977 C55.6183014,191.251678 49.8537903,188.122849 44.4619751,184.480209 C39.1226501,180.873062 34.1019745,176.730652 29.5393829,172.16803 C24.9767609,167.605438 20.8343506,162.584763 17.2272034,157.245438 C13.5845642,151.853622 10.4557343,146.089111 7.92764282,140.112061 C5.35232544,134.023346 3.37443542,127.651649 2.04891968,121.173943 C0.689346313,114.529945 0,107.693237 0,100.853706 C0,94.0141754 0.689346313,87.1774673 2.04891968,80.5334702 C3.37443542,74.0557632 5.35232544,67.6840668 7.92764282,61.5953522 C10.4557343,55.6183014 13.5845642,49.8537903 17.2272034,44.4619751 C20.8343506,39.1226501 24.9767609,34.1019745 29.5393829,29.5393829 C34.1019745,24.9767609 39.1226501,20.8343506 44.4619751,17.2272034 C49.8537903,13.5845642 55.6183014,10.4557343 61.5953522,7.92764282 C67.6840668,5.35232544 74.0557632,3.37443542 80.5334702,2.04891968 C87.1774673,0.689346313 94.0141754,0 100.853706,0 Z" id="Shape" fill="#A560E3" fill-rule="nonzero"></path>
                    </g>
                </g>
                <g id="Group" transform="translate(15.020000, 15.290000)" fill="#A560E3" fill-rule="nonzero">
                    <circle id="Ellipse_11-2" cx="86" cy="86" r="86"></circle>
                </g>
                <g id="Group_12083" transform="translate(28.469000, 55.024000)" fill-rule="nonzero">
                    <g id="SPIN" fill="#FDFCFE" font-family="RubikRoman-ExtraBold, Rubik" font-size="61" font-weight="700">
                        <text>
                            <tspan x="0" y="57">SPIN</tspan>
                        </text>
                    </g>
                    <g id="_10MPs_lần" transform="translate(21.343000, 67.000000)" fill="#330F54" font-family="Montserrat-Medium, Montserrat" font-size="20" font-weight="400">
                        <text id="10MPs/lần">
                            <tspan x="0" y="19">10MPs/lần</tspan>
                        </text>
                    </g>
                </g>
            </g>
            <g class="active" id="Group_12094" transform="translate(442.957563, 81.189484) rotate(35.024873) translate(-442.957563, -81.189484) translate(385.027106, 22.646111)">
                <path d="M33.9214992,50.5403317 C33.9214992,50.5403317 33.9214992,50.5313306 33.9214992,50.52633 L33.9014968,50.4903257 C33.9014968,35.7545799 45.5648787,23.8081645 59.9515832,23.8081645 C70.5267489,23.859326 79.9877731,30.3920703 83.7824066,40.263114 C85.084322,43.5327651 85.7496567,47.0210203 85.7426938,50.5403317 C84.8934686,58.5436208 82.4403657,66.2937526 78.5297843,73.3280315 C72.0170127,85.0614217 59.9715855,97.8309346 59.9715855,97.8309346 L33.9214992,50.5403317 Z" id="Union_2" fill="#F05153" fill-rule="nonzero"></path>
                <g id="Group_12089">
                    <g id="Group_12085-Clipped" transform="translate(29.566983, 19.804690)">
                        <mask id="mask-2" fill="white">
                            <use xlink:href="#path-1"></use>
                        </mask>
                        <g id="Rectangle_9828"></g>
                        <g id="Group_12085" mask="url(#mask-2)" fill="#F05153" fill-rule="nonzero">
                            <g transform="translate(-0.000132, 0.023710)" id="Path_15826-2">
                                <path d="M56.146784,26.9114808 C55.6766095,15.6808162 48.5555626,5.81220707 38.0455603,1.82613825 C27.5355581,-2.15993057 15.6612128,0.504404131 7.861771,8.59869839 C0.0623291847,16.6929927 -2.15975029,28.6579882 2.213394,39.0129146 C8.37512404,55.6998916 25.5031533,75.6532557 27.8244284,77.8965215 C27.9713357,78.0389708 28.203873,78.042042 28.3544912,77.9035223 C30.8967924,75.5662454 50.737143,53.8196689 55.2496777,35.2314666 C55.2966833,35.0554457 55.3376881,34.8764245 55.3806932,34.6984034 C55.4236983,34.5203823 55.4667034,34.3413611 55.5037078,34.16334 C55.7916679,32.859043 55.9861849,31.5358594 56.0857767,30.2038709 C56.0857767,30.1518647 56.0937777,30.1038591 56.0977782,30.0488525 C56.1437836,29.3927748 56.1747873,28.7316965 56.1747873,28.0646174 C56.1747873,27.6535687 56.163786,27.275524 56.1457839,26.9114808"></path>
                            </g>
                        </g>
                    </g>
                    <g id="Group" fill="#F05153">
                        <path d="M82.8632977,46.1888161 C82.444189,36.0974083 76.0478792,27.2281453 66.6048906,23.6445535 C57.161902,20.0609617 46.4917491,22.4535425 39.4830509,29.7261152 C32.4743528,36.9986879 30.4775745,47.7499429 34.4075567,57.0541034 C39.9442127,72.0498801 55.3310357,89.976004 57.4222835,91.9942431 C57.5544978,92.1225615 57.7639399,92.125196 57.89934,92.0002438 C60.1826105,89.8999949 78.0087226,70.3626802 82.0622028,53.6617015 C82.1042078,53.5026826 82.1412122,53.3426637 82.1802168,53.1826447 C82.2192214,53.0226258 82.2572259,52.8626068 82.29123,52.7025878 C82.5499844,51.5307328 82.7247823,50.3419062 82.8142919,49.1451664 C82.8142919,49.0981608 82.8212928,49.0521553 82.8252932,49.0061499 C82.8662981,48.41608 82.8953015,47.8230097 82.8953015,47.2229386 C82.8953015,46.8538949 82.8853003,46.5138546 82.8692984,46.1868159" id="Path_15826-3" fill-rule="nonzero"></path>
                        <g transform="translate(57.930457, 58.543373) rotate(-34.804012) translate(-57.930457, -58.543373) translate(17.314171, 15.478735)" fill-rule="nonzero" id="Path_15826-4">
                            <path d="M65.7546685,32.2356216 C65.3366914,22.1714606 58.9576516,13.3261445 49.5401591,9.75222842 C40.1226666,6.17831233 29.481323,8.5644332 22.4915484,15.8173699 C15.5017737,23.0703067 13.5103868,33.7925333 17.429758,43.0715726 C22.951465,58.0268607 38.2967436,75.904584 40.382345,77.9173739 C40.5142024,78.0453458 40.723079,78.0479732 40.8581135,77.9233584 C43.1352192,75.8287802 60.9132007,56.3442162 64.9557366,39.6883301 C64.9976281,39.5297406 65.0345326,39.3701537 65.0734319,39.2105668 C65.1123312,39.0509799 65.1502331,38.891393 65.1841453,38.7318061 C65.4422011,37.5631151 65.6165271,36.3774983 65.705795,35.1839897 C65.705795,35.137111 65.712777,35.0912298 65.7167666,35.0453485 C65.7576608,34.4568718 65.7865859,33.8654028 65.7865859,33.2669519 C65.7865859,32.8989046 65.7766117,32.5597825 65.760653,32.2336267" transform="translate(40.616286, 43.064638) rotate(34.804012) translate(-40.616286, -43.064638) "></path>
                        </g>
                        <path d="M82.8632977,46.1888161 C82.444189,36.0974083 76.0478792,27.2281453 66.6048906,23.6445535 C57.161902,20.0609617 46.4917491,22.4535425 39.4830509,29.7261152 C32.4743528,36.9986879 30.4775745,47.7499429 34.4075567,57.0541034 C39.9442127,72.0498801 55.3310357,89.976004 57.4222835,91.9942431 C57.5544978,92.1225615 57.7639399,92.125196 57.89934,92.0002438 C60.1826105,89.8999949 78.0087226,70.3626802 82.0622028,53.6617015 C82.1042078,53.5026826 82.1412122,53.3426637 82.1802168,53.1826447 C82.2192214,53.0226258 82.2572259,52.8626068 82.29123,52.7025878 C82.5499844,51.5307328 82.7247823,50.3419062 82.8142919,49.1451664 C82.8142919,49.0981608 82.8212928,49.0521553 82.8252932,49.0061499 C82.8662981,48.41608 82.8953015,47.8230097 82.8953015,47.2229386 C82.8953015,46.8538949 82.8853003,46.5138546 82.8692984,46.1868159" id="Path_15826-5" stroke="#F05153" stroke-width="0.500059246"></path>
                    </g>
                    <g id="Group" transform="translate(56.086360, 43.202797) rotate(-34.804012) translate(-56.086360, -43.202797) translate(45.254947, 32.371384)" fill="#FDFCFE" fill-rule="nonzero">
                        <circle id="Ellipse_14-2" transform="translate(10.831413, 10.831413) rotate(34.804012) translate(-10.831413, -10.831413) " cx="10.8314129" cy="10.8314129" r="7.78185659"></circle>
                    </g>
                </g>
            </g>

            <!-- <g class="active">
    <g>
      <path d="M707,160.5c-11.4-17.9-35.8-22.8-54.5-11a41.7,41.7,0,0,0-13.6,14.1l-33.6,58.9a2.3,2.3,0,0,0,0,2.4,2.4,2.4,0,0,0,2.3,1.1l67.5-5.1a43.8,43.8,0,0,0,18.6-6.3C712.4,202.7,718.3,178.5,707,160.5Z" transform="translate(0)" fill-opacity="0.22"/>
      <path class="winIndicator" d="M711.9,157.4a38.4,38.4,0,0,0-66,1.8l-31.5,57.5a2.1,2.1,0,0,0,0,2.4,2.6,2.6,0,0,0,2.2,1.2l65.6-3.9a39.6,39.6,0,0,0,17.9-5.9A38.5,38.5,0,0,0,711.9,157.4Z" transform="translate(0)"/>
      <path d="M681.7,166.9a9.3,9.3,0,0,0-6.6,4.8l-.8,2.1a14.9,14.9,0,0,0-.2,2.1,8.8,8.8,0,0,0,1.1,4.2,9.2,9.2,0,0,0,2.9,3,7.6,7.6,0,0,0,2.9,1.3l1.1.2a8.6,8.6,0,0,0,4.2-.6,8.4,8.4,0,0,0,3.4-2.5,7.4,7.4,0,0,0,2-3.8,8.5,8.5,0,0,0-.1-4.2,8.4,8.4,0,0,0-2.1-3.8,7.4,7.4,0,0,0-3.5-2.3l-1-.3A12.2,12.2,0,0,0,681.7,166.9Z" transform="translate(0)" fill="#ccc"/>
    </g> -->
  </g>
        </g>
    </g>
</svg>